<svg width="24" height="16" viewBox="0 0 24 16" fill="none" xmlns="http://www.w3.org/2000/svg">
<g clip-path="url(#clip0_9_1668)">
<path d="M0 2C0 0.895431 0.895431 0 2 0H22C23.1046 0 24 0.895431 24 2V14C24 15.1046 23.1046 16 22 16H2C0.89543 16 0 15.1046 0 14V2Z" fill="#09122A"/>
<path d="M11.6003 6.92239C11.6681 6.5662 11.7445 6.21 11.8123 5.84533C12.0328 5.82837 12.2533 5.81989 12.4908 5.80293C12.4653 5.9471 12.4399 6.08279 12.4144 6.21849C12.2788 6.93935 12.1431 7.6687 11.9989 8.38957C11.965 8.57615 11.8971 8.76273 11.8208 8.93235C11.6597 9.28006 11.3967 9.51752 11.0321 9.63625C10.5741 9.78891 10.1077 9.80587 9.6497 9.64473C9.14933 9.46664 8.87795 9.02563 8.92883 8.49982C9.00516 7.70263 9.50553 7.15986 10.3282 6.97328C10.6928 6.89695 11.0575 6.89695 11.4222 6.91391C11.4731 6.93087 11.5324 6.92239 11.6003 6.92239ZM11.4816 7.39732C11.1932 7.36339 10.9218 7.35491 10.6504 7.4058C10.413 7.4482 10.1925 7.53301 10.0144 7.71111C9.75147 7.97401 9.6497 8.29628 9.64122 8.65248C9.63274 8.94931 9.79388 9.14437 10.0822 9.21221C10.1755 9.22917 10.2688 9.23766 10.3621 9.23766C10.8285 9.23766 11.1423 9.00019 11.2526 8.54223C11.3035 8.33021 11.3374 8.10971 11.3883 7.89769C11.4137 7.73655 11.4476 7.56693 11.4816 7.39732Z" fill="#577CDB"/>
<path d="M19.9539 9.8314C19.674 9.81444 19.4027 9.77204 19.1482 9.65331C18.7327 9.44977 18.5207 9.05117 18.58 8.5932C18.6818 7.79601 19.25 7.17691 20.0557 7.00729C20.4119 6.93096 20.7765 6.914 21.1327 7.00729C21.8027 7.17691 22.125 7.70272 21.9554 8.3727C21.7688 9.1275 21.2684 9.56002 20.5391 9.75508C20.344 9.789 20.149 9.80596 19.9539 9.8314ZM20.0302 9.32256C20.2677 9.31407 20.4882 9.25471 20.6833 9.11902C21.0395 8.86459 21.2091 8.5084 21.226 8.07587C21.2345 7.7112 21.014 7.46526 20.6663 7.42285C20.4119 7.38893 20.1659 7.43981 19.9454 7.57551C19.5214 7.84689 19.3263 8.25397 19.3263 8.74586C19.3263 9.02573 19.4875 9.2123 19.7589 9.28015C19.8521 9.29711 19.9454 9.30559 20.0302 9.32256Z" fill="#577CDB"/>
<path d="M6.62205 9.79749C6.35067 9.78901 6.09624 9.7466 5.8503 9.63635C5.42626 9.44129 5.21424 9.03421 5.26512 8.56777C5.35841 7.76209 5.96055 7.16843 6.77471 6.99882C7.16482 6.92249 7.56342 6.91401 7.94506 7.05818C8.47935 7.26172 8.69137 7.70272 8.61504 8.23702C8.49631 9.00877 7.90266 9.5685 7.1309 9.72964C6.96129 9.76356 6.79167 9.77204 6.62205 9.79749ZM7.18179 7.4059C6.96129 7.41438 6.74078 7.48222 6.56269 7.60944C6.18105 7.88082 6.01143 8.25398 6.00295 8.71194C6.00295 8.99181 6.16409 9.19535 6.43548 9.26319C6.7323 9.33104 7.02065 9.29712 7.28356 9.13598C7.68215 8.89004 7.86873 8.5084 7.86873 8.05044C7.86873 7.75361 7.7076 7.53311 7.43621 7.45678C7.3514 7.43134 7.26659 7.42286 7.18179 7.4059Z" fill="#577CDB"/>
<path d="M13.0336 8.53376C13.0081 8.85603 13.0929 9.11894 13.3643 9.30552C13.5678 9.44969 13.8053 9.50906 14.0428 9.52602C14.2718 9.54298 14.5007 9.5345 14.7382 9.5345C14.7806 9.5345 14.8145 9.5345 14.8654 9.55146C14.7891 9.59386 14.7128 9.63627 14.628 9.67867C14.0767 9.91614 13.517 9.94158 12.9572 9.68715C12.4653 9.45817 12.2448 9.00869 12.3296 8.46592C12.4399 7.74505 12.9742 7.17683 13.7799 7.00722C14.1445 6.93089 14.5092 6.91393 14.8654 7.02418C15.1029 7.09203 15.2979 7.21924 15.3658 7.47366C15.4506 7.77049 15.3658 8.02492 15.1453 8.22845C14.9248 8.43199 14.6449 8.52528 14.3481 8.57617C13.9325 8.63553 13.6272 8.62705 13.0336 8.53376ZM13.1268 8.12668C13.4491 8.18605 13.7629 8.20301 14.0852 8.16061C14.2548 8.13517 14.4159 8.10124 14.5516 7.99947C14.6873 7.90618 14.7467 7.77049 14.7128 7.61784C14.6788 7.46518 14.5601 7.40582 14.4244 7.38885C14.0428 7.32949 13.7035 7.43126 13.4237 7.69416C13.288 7.81289 13.1947 7.95707 13.1268 8.12668Z" fill="#577CDB"/>
<path d="M2 9.62785C2.03392 9.49216 2.06785 9.35647 2.10177 9.22925C2.31379 9.2547 2.51733 9.28014 2.72087 9.2971C3.05162 9.32254 3.37389 9.33951 3.69616 9.2547C3.79793 9.22925 3.8997 9.18685 3.97603 9.12749C4.0354 9.08508 4.08628 9.01723 4.11172 8.94091C4.17109 8.79673 4.1202 8.678 3.97603 8.62712C3.80641 8.56775 3.62832 8.54231 3.4587 8.50839C3.28908 8.47446 3.11947 8.4575 2.94985 8.40662C2.50885 8.27092 2.39012 7.81296 2.68695 7.46525C2.87352 7.24474 3.11947 7.14297 3.38237 7.07513C3.83186 6.9564 4.28134 6.9564 4.7393 6.98184C4.9174 6.9988 5.10398 7.01576 5.29904 7.0412C5.24815 7.16842 5.20575 7.29563 5.16334 7.41436C5.17182 7.43132 5.14638 7.43132 5.12094 7.43132C4.93436 7.42284 4.74778 7.40588 4.55272 7.40588C4.23045 7.40588 3.8997 7.40588 3.58591 7.50765C3.52655 7.52461 3.46718 7.55005 3.4163 7.59246C3.25516 7.70271 3.27212 7.88929 3.45022 7.95713C3.58591 8.00802 3.73009 8.03346 3.87426 8.0589C4.04388 8.09283 4.22197 8.11827 4.40007 8.16067C4.84107 8.2794 5.01069 8.54231 4.86651 9.0342C4.78171 9.30558 4.58665 9.48368 4.33222 9.59393C4.0354 9.72962 3.71312 9.77203 3.39085 9.78899C2.94137 9.80595 2.49189 9.76355 2.05088 9.6533C2.03392 9.64481 2.02544 9.63633 2 9.62785Z" fill="#577CDB"/>
<path d="M18.9192 6.03197C18.9532 5.89628 18.9871 5.76907 19.021 5.63337C19.0634 5.4892 19.1058 5.34503 19.1482 5.18389C18.8938 5.14997 18.6394 5.11604 18.3934 5.08212C18.3934 5.07364 18.3849 5.07364 18.3849 5.06516C18.6309 4.92947 18.8768 4.78529 19.1228 4.64112C19.021 4.39518 18.9192 4.15771 18.809 3.89481C19.0465 4.00506 19.2754 4.10683 19.5129 4.21708C19.6401 3.94569 19.7673 3.68279 19.9115 3.39444C19.9539 3.68279 19.9878 3.95417 20.0217 4.23404C20.2592 4.14923 20.4967 4.0729 20.7257 3.9881C20.7511 3.97962 20.7765 3.97962 20.802 3.97962C20.6493 4.17467 20.5052 4.36973 20.3525 4.56479C20.3271 4.59872 20.2931 4.63264 20.2677 4.67504C20.4712 4.8277 20.6663 4.98035 20.8783 5.14997C20.5984 5.17541 20.3355 5.19237 20.0641 5.20933C20.0472 5.4892 20.0387 5.76907 20.0217 6.04893C20.0133 6.04893 20.0133 6.05742 20.0048 6.05742C19.8606 5.85388 19.7164 5.65034 19.5638 5.43832C19.4959 5.49768 19.4281 5.56553 19.3602 5.62489C19.2161 5.76059 19.0719 5.8878 18.9192 6.03197C18.9192 6.03197 18.9192 6.02349 18.9192 6.03197Z" fill="#577CDB"/>
<path d="M17.0026 7.99952C17.1892 7.8299 17.3758 7.66877 17.5539 7.49067C17.9949 7.06663 18.4104 6.61715 18.809 6.1507C18.826 6.13374 18.843 6.11678 18.8684 6.1083C18.8599 6.14222 18.8599 6.16766 18.843 6.20159C18.5461 7.04119 18.1051 7.79598 17.4521 8.4066C17.4351 8.42356 17.4182 8.44052 17.4097 8.449C17.2486 8.57622 17.079 8.71191 16.9178 8.83912C16.7228 8.94937 16.5277 9.0681 16.3242 9.16987C15.9256 9.36493 15.493 9.48366 15.0436 9.50911C15.0012 9.50911 14.9672 9.51759 14.9248 9.51759C14.9163 9.51759 14.9163 9.50911 14.8994 9.50063C14.9587 9.4667 15.0181 9.43278 15.0775 9.39885C15.5778 9.11051 16.0443 8.77976 16.4938 8.41508C16.5023 8.4066 16.5192 8.38964 16.5277 8.38116C16.6973 8.26243 16.85 8.13521 17.0026 7.99952Z" fill="#EE4427"/>
<path d="M16.9262 8.85609C17.0873 8.72888 17.257 8.59319 17.4181 8.46597C17.8167 8.89849 18.2153 9.33102 18.6224 9.77202C18.5884 9.77202 18.5715 9.7805 18.546 9.7805C18.3086 9.7805 18.0796 9.7805 17.8421 9.7805C17.7997 9.7805 17.7488 9.76354 17.7234 9.72961C17.452 9.43279 17.1891 9.14444 16.9262 8.85609Z" fill="#577CDB"/>
<path d="M17.0026 7.99944C16.8499 8.12665 16.6973 8.26235 16.5361 8.38956C16.3072 8.07577 16.0697 7.76198 15.8407 7.44819C15.7474 7.32098 15.6626 7.18528 15.5778 7.04959C15.5608 7.02415 15.5524 6.99871 15.5269 6.96478C15.7389 6.96478 15.934 6.96478 16.1291 6.96478C16.146 6.96478 16.1715 6.98174 16.1884 6.99871C16.4598 7.33794 16.7312 7.66869 17.0026 7.99944Z" fill="#577CDB"/>
<path d="M18.919 6.02353C18.919 6.03152 18.919 6.03152 18.919 6.02353C18.911 6.03152 18.919 6.03152 18.919 6.02353C18.919 6.03152 18.919 6.03152 18.919 6.02353C18.919 6.03152 18.919 6.02353 18.919 6.02353Z" fill="#577CDB"/>
<path d="M20.8104 3.97066V3.96267H20.8184C20.8184 3.97066 20.8184 3.97066 20.8104 3.97066Z" fill="#577CDB"/>
</g>
<defs>
<clipPath id="clip0_9_1668">
<rect width="24" height="16" fill="white"/>
</clipPath>
</defs>
</svg>
