<?xml version="1.0" encoding="UTF-8"?>
<svg xmlns="http://www.w3.org/2000/svg" xmlns:xlink="http://www.w3.org/1999/xlink" width="50px" height="50px" viewBox="0 0 39 38" version="1.1">
<g id="surface1">
<path style=" stroke:none;fill-rule:evenodd;fill:rgb(0%,0%,0%);fill-opacity:1;" d="M 38.914062 20.132812 C 39.140625 21.320312 38.914062 22.414062 38.230469 23.40625 C 38.121094 23.609375 37.972656 23.820312 37.789062 24.03125 C 37.769531 24.046875 37.757812 24.066406 37.75 24.082031 L 32.132812 33.050781 C 31.988281 33.273438 31.777344 33.492188 31.5 33.714844 C 30.9375 34.15625 30.320312 34.371094 29.652344 34.363281 L 24.921875 34.300781 L 24.859375 37.996094 L 20.214844 29.867188 L 24.882812 21.164062 L 24.78125 25.40625 L 31.324219 25.457031 L 26.210938 16.5 L 34.410156 11.738281 L 38.570312 19.0625 C 38.734375 19.410156 38.847656 19.765625 38.914062 20.132812 Z M 6.566406 9.339844 L 10.640625 1.953125 C 10.851562 1.648438 11.09375 1.367188 11.375 1.113281 C 12.265625 0.304688 13.3125 -0.0585938 14.511719 0.015625 L 15.246094 0.144531 L 25.859375 0.257812 L 26.757812 0.460938 C 27.421875 0.714844 27.921875 1.132812 28.25 1.710938 L 30.652344 5.824219 L 33.828125 3.964844 L 29.324219 12.171875 L 19.507812 12.652344 L 23.175781 10.550781 L 19.863281 4.882812 L 14.863281 13.941406 Z M 0 13.238281 L 9.324219 13.238281 L 14.484375 21.648438 L 10.878906 19.445312 L 7.617188 25.125 L 17.851562 25.125 L 17.863281 34.667969 L 9.917969 34.667969 C 9.453125 34.695312 8.941406 34.605469 8.375 34.402344 C 7.253906 34.011719 6.433594 33.273438 5.921875 32.183594 C 5.800781 31.980469 5.703125 31.746094 5.617188 31.484375 L 0.632812 22.042969 C 0.515625 21.804688 0.429688 21.511719 0.378906 21.164062 C 0.277344 20.460938 0.402344 19.820312 0.746094 19.242188 L 3.164062 15.136719 Z M 0 13.238281 "/>
</g>
</svg>
