<svg xmlns="http://www.w3.org/2000/svg" xmlns:xlink="http://www.w3.org/1999/xlink" width="500" zoomAndPan="magnify" viewBox="0 0 375 374.999991" height="500" preserveAspectRatio="xMidYMid meet" version="1.0"><defs><g/><clipPath id="13e7e73b9b"><path d="M 105.84375 169.273438 L 141.585938 169.273438 L 141.585938 205.015625 L 105.84375 205.015625 Z M 105.84375 169.273438 " clip-rule="nonzero"/></clipPath></defs><rect x="-37.5" width="450" fill="#ffffff" y="-37.499999" height="449.999989" fill-opacity="1"/><rect x="-37.5" width="450" fill="#ffffff" y="-37.499999" height="449.999989" fill-opacity="1"/><rect x="-37.5" width="450" fill="#eba85a" y="-37.499999" height="449.999989" fill-opacity="1"/><path stroke-linecap="butt" transform="matrix(4.497115, 0, 0, 4.535433, 59.540465, 145.063102)" fill="none" stroke-linejoin="miter" d="M -0.000311953 -0.000132661 L 56.87122 -0.000132661 " stroke="#000000" stroke-width="1" stroke-opacity="1" stroke-miterlimit="4"/><path stroke-linecap="butt" transform="matrix(4.500687, 0, 0, 4.535433, 59.540465, 230.004551)" fill="none" stroke-linejoin="miter" d="M -0.000311706 -0.000142224 L 51.161145 -0.000142224 " stroke="#000000" stroke-width="1" stroke-opacity="1" stroke-miterlimit="4"/><path stroke-linecap="butt" transform="matrix(0.000000000000000275, 4.488827, -4.535433, 0.000000000000000278, 61.736852, 145.029864)" fill="none" stroke-linejoin="miter" d="M 0.00030875 -0.000315208 L 18.881388 -0.000315208 " stroke="#000000" stroke-width="1" stroke-opacity="1" stroke-miterlimit="4"/><path stroke-linecap="butt" transform="matrix(0.000000000000002272, 4.497131, -4.535433, 0.000000000000002292, 313.186244, 142.798159)" fill="none" stroke-linejoin="miter" d="M -0.000285609 -0.000276945 L 16.345203 -0.000276945 " stroke="#000000" stroke-width="1" stroke-opacity="1" stroke-miterlimit="4"/><g clip-path="url(#13e7e73b9b)"><path fill="#000000" d="M 124.972656 190.296875 L 121.566406 186.890625 L 118.15625 193.707031 Z M 126.796875 190.441406 L 132.160156 179.710938 L 121.433594 185.078125 L 116.066406 195.804688 Z M 122.722656 173.25 C 113.925781 173.542969 107.121094 183.816406 110.621094 191.972656 C 113.074219 198.792969 121.476562 203.046875 128.289062 200.316406 C 134.707031 198.121094 139.097656 190.820312 137.308594 184.125 C 135.929688 177.753906 129.738281 172.71875 123.132812 173.242188 L 122.882812 173.246094 Z M 141.578125 187.144531 C 141.578125 197.011719 133.578125 205.011719 123.710938 205.011719 C 113.84375 205.011719 105.847656 197.011719 105.847656 187.144531 C 105.847656 177.28125 113.84375 169.28125 123.710938 169.28125 C 133.578125 169.28125 141.578125 177.28125 141.578125 187.144531 Z M 141.578125 187.144531 " fill-opacity="1" fill-rule="evenodd"/></g><g fill="#000000" fill-opacity="1"><g transform="translate(143.373379, 202.527011)"><g><path d="M 23.140625 -3.046875 C 23.390625 -2.640625 23.515625 -2.222656 23.515625 -1.796875 C 23.515625 -1.285156 23.34375 -0.859375 23 -0.515625 C 22.664062 -0.171875 22.203125 0 21.609375 0 C 20.878906 0 20.3125 -0.316406 19.90625 -0.953125 L 13.34375 -11.46875 L 7.78125 -11.46875 L 7.78125 -1.984375 C 7.78125 -1.421875 7.59375 -0.945312 7.21875 -0.5625 C 6.851562 -0.1875 6.378906 0 5.796875 0 C 5.234375 0 4.757812 -0.1875 4.375 -0.5625 C 4 -0.945312 3.8125 -1.421875 3.8125 -1.984375 L 3.8125 -27.796875 C 3.8125 -28.378906 4 -28.851562 4.375 -29.21875 C 4.757812 -29.59375 5.234375 -29.78125 5.796875 -29.78125 L 12.65625 -29.78125 C 14.539062 -29.78125 16.222656 -29.382812 17.703125 -28.59375 C 19.191406 -27.800781 20.347656 -26.691406 21.171875 -25.265625 C 22.003906 -23.847656 22.421875 -22.222656 22.421875 -20.390625 C 22.421875 -18.585938 21.960938 -16.988281 21.046875 -15.59375 C 20.128906 -14.195312 18.882812 -13.140625 17.3125 -12.421875 Z M 12.65625 -15.140625 C 14.382812 -15.140625 15.804688 -15.628906 16.921875 -16.609375 C 18.046875 -17.585938 18.609375 -18.847656 18.609375 -20.390625 C 18.609375 -22.066406 18.046875 -23.4375 16.921875 -24.5 C 15.804688 -25.570312 14.382812 -26.109375 12.65625 -26.109375 L 7.78125 -26.109375 L 7.78125 -15.140625 Z M 12.65625 -15.140625 "/></g></g></g><g fill="#000000" fill-opacity="1"><g transform="translate(167.462365, 202.527011)"><g><path d="M 5.796875 0 C 5.234375 0 4.757812 -0.1875 4.375 -0.5625 C 4 -0.945312 3.8125 -1.421875 3.8125 -1.984375 L 3.8125 -27.796875 C 3.8125 -28.378906 4 -28.851562 4.375 -29.21875 C 4.757812 -29.59375 5.234375 -29.78125 5.796875 -29.78125 C 6.378906 -29.78125 6.851562 -29.59375 7.21875 -29.21875 C 7.59375 -28.851562 7.78125 -28.378906 7.78125 -27.796875 L 7.78125 -1.984375 C 7.78125 -1.421875 7.59375 -0.945312 7.21875 -0.5625 C 6.851562 -0.1875 6.378906 0 5.796875 0 Z M 5.796875 0 "/></g></g></g><g fill="#000000" fill-opacity="1"><g transform="translate(179.049475, 202.527011)"><g><path d="M 25.15625 -15.4375 C 25.71875 -15.4375 26.179688 -15.25 26.546875 -14.875 C 26.921875 -14.507812 27.109375 -14.035156 27.109375 -13.453125 L 27.109375 -4.34375 C 27.109375 -3.738281 26.90625 -3.269531 26.5 -2.9375 C 23.832031 -0.726562 20.71875 0.375 17.15625 0.375 C 14.4375 0.375 11.953125 -0.296875 9.703125 -1.640625 C 7.453125 -2.984375 5.675781 -4.820312 4.375 -7.15625 C 3.082031 -9.5 2.4375 -12.082031 2.4375 -14.90625 C 2.4375 -17.695312 3.082031 -20.253906 4.375 -22.578125 C 5.675781 -24.910156 7.453125 -26.753906 9.703125 -28.109375 C 11.953125 -29.472656 14.4375 -30.15625 17.15625 -30.15625 C 19.082031 -30.15625 20.75 -29.898438 22.15625 -29.390625 C 23.570312 -28.878906 25.003906 -28.039062 26.453125 -26.875 C 26.765625 -26.644531 26.96875 -26.410156 27.0625 -26.171875 C 27.164062 -25.929688 27.21875 -25.644531 27.21875 -25.3125 C 27.21875 -24.800781 27.03125 -24.378906 26.65625 -24.046875 C 26.289062 -23.722656 25.859375 -23.5625 25.359375 -23.5625 C 24.898438 -23.5625 24.46875 -23.726562 24.0625 -24.0625 C 23.019531 -24.945312 22 -25.585938 21 -25.984375 C 20.007812 -26.378906 18.726562 -26.578125 17.15625 -26.578125 C 15.175781 -26.578125 13.351562 -26.054688 11.6875 -25.015625 C 10.019531 -23.972656 8.695312 -22.554688 7.71875 -20.765625 C 6.738281 -18.972656 6.25 -17.019531 6.25 -14.90625 C 6.25 -12.769531 6.738281 -10.8125 7.71875 -9.03125 C 8.695312 -7.25 10.019531 -5.835938 11.6875 -4.796875 C 13.351562 -3.753906 15.175781 -3.234375 17.15625 -3.234375 C 19.289062 -3.234375 21.335938 -3.867188 23.296875 -5.140625 L 23.296875 -11.9375 L 18.03125 -11.9375 C 17.445312 -11.9375 16.96875 -12.097656 16.59375 -12.421875 C 16.226562 -12.753906 16.046875 -13.175781 16.046875 -13.6875 C 16.046875 -14.195312 16.226562 -14.613281 16.59375 -14.9375 C 16.96875 -15.269531 17.445312 -15.4375 18.03125 -15.4375 Z M 25.15625 -15.4375 "/></g></g></g><g fill="#000000" fill-opacity="1"><g transform="translate(208.665209, 202.527011)"><g><path d="M 5.796875 0 C 5.234375 0 4.757812 -0.1875 4.375 -0.5625 C 4 -0.945312 3.8125 -1.421875 3.8125 -1.984375 L 3.8125 -27.796875 C 3.8125 -28.378906 4 -28.851562 4.375 -29.21875 C 4.757812 -29.59375 5.234375 -29.78125 5.796875 -29.78125 C 6.378906 -29.78125 6.851562 -29.59375 7.21875 -29.21875 C 7.59375 -28.851562 7.78125 -28.378906 7.78125 -27.796875 L 7.78125 -1.984375 C 7.78125 -1.421875 7.59375 -0.945312 7.21875 -0.5625 C 6.851562 -0.1875 6.378906 0 5.796875 0 Z M 5.796875 0 "/></g></g></g><g fill="#000000" fill-opacity="1"><g transform="translate(220.252318, 202.527011)"><g><path d="M 5.75 0 C 5.195312 0 4.734375 -0.179688 4.359375 -0.546875 C 3.992188 -0.921875 3.8125 -1.398438 3.8125 -1.984375 L 3.8125 -27.796875 C 3.8125 -28.378906 3.992188 -28.851562 4.359375 -29.21875 C 4.734375 -29.59375 5.195312 -29.78125 5.75 -29.78125 C 6.03125 -29.78125 6.3125 -29.707031 6.59375 -29.5625 C 6.875 -29.425781 7.101562 -29.253906 7.28125 -29.046875 L 23.90625 -6.9375 L 23.90625 -27.796875 C 23.90625 -28.378906 24.09375 -28.851562 24.46875 -29.21875 C 24.851562 -29.59375 25.328125 -29.78125 25.890625 -29.78125 C 26.441406 -29.78125 26.898438 -29.59375 27.265625 -29.21875 C 27.640625 -28.851562 27.828125 -28.378906 27.828125 -27.796875 L 27.828125 -1.984375 C 27.828125 -1.398438 27.640625 -0.921875 27.265625 -0.546875 C 26.898438 -0.179688 26.441406 0 25.890625 0 C 25.609375 0 25.320312 -0.0546875 25.03125 -0.171875 C 24.738281 -0.285156 24.515625 -0.457031 24.359375 -0.6875 L 7.734375 -22.796875 L 7.734375 -1.984375 C 7.734375 -1.421875 7.550781 -0.945312 7.1875 -0.5625 C 6.820312 -0.1875 6.34375 0 5.75 0 Z M 5.75 0 "/></g></g></g><g fill="#000000" fill-opacity="1"><g transform="translate(251.888169, 202.527011)"><g><path d="M 4.53125 0.609375 C 3.820312 0.609375 3.207031 0.347656 2.6875 -0.171875 C 2.164062 -0.691406 1.90625 -1.304688 1.90625 -2.015625 C 1.90625 -2.753906 2.164062 -3.382812 2.6875 -3.90625 C 3.207031 -4.425781 3.820312 -4.6875 4.53125 -4.6875 C 5.25 -4.6875 5.867188 -4.425781 6.390625 -3.90625 C 6.910156 -3.382812 7.171875 -2.753906 7.171875 -2.015625 C 7.171875 -1.304688 6.914062 -0.691406 6.40625 -0.171875 C 5.894531 0.347656 5.269531 0.609375 4.53125 0.609375 Z M 4.53125 0.609375 "/></g></g></g></svg>