<svg width="135" height="46" viewBox="0 0 135 46" fill="none" xmlns="http://www.w3.org/2000/svg">
<rect x="0.5" y="0.508301" width="134" height="45" rx="6.5" fill="#0C0D10"/>
<rect x="0.5" y="0.508301" width="134" height="45" rx="6.5" stroke="#A6A6A6"/>
<path d="M91.7165 22.0892V24.7239H90.101V26.4517H91.7165V32.3224C91.7165 34.3271 92.6037 35.1289 94.8355 35.1289C95.2277 35.1289 95.6013 35.0812 95.9281 35.0239V33.3152C95.648 33.3438 95.4705 33.3629 95.1624 33.3629C94.1632 33.3629 93.7243 32.8856 93.7243 31.7974V26.4517H95.9281V24.7239H93.7243V22.0892H91.7165Z" fill="white"/>
<path d="M101.614 35.2721C104.583 35.2721 106.404 33.2388 106.404 29.8691C106.404 26.5185 104.574 24.4757 101.614 24.4757C98.6441 24.4757 96.8138 26.5185 96.8138 29.8691C96.8138 33.2388 98.6348 35.2721 101.614 35.2721ZM101.614 33.4488C99.8674 33.4488 98.8869 32.141 98.8869 29.8691C98.8869 27.6163 99.8674 26.299 101.614 26.299C103.351 26.299 104.341 27.6163 104.341 29.8691C104.341 32.1315 103.351 33.4488 101.614 33.4488Z" fill="white"/>
<path d="M107.962 35.0716H109.97V28.9336C109.97 27.4731 111.044 26.4899 112.566 26.4899C112.921 26.4899 113.519 26.5567 113.687 26.614V24.5902C113.472 24.533 113.089 24.5043 112.79 24.5043C111.464 24.5043 110.334 25.2489 110.045 26.2703H109.895V24.6762H107.962V35.0716Z" fill="white"/>
<path d="M118.672 26.2226C120.157 26.2226 121.128 27.2822 121.175 28.9145H116.039C116.151 27.2917 117.187 26.2226 118.672 26.2226ZM121.165 32.2651C120.792 33.0765 119.961 33.5252 118.747 33.5252C117.14 33.5252 116.104 32.3701 116.039 30.5469V30.4323H123.22V29.7164C123.22 26.4517 121.511 24.4757 118.681 24.4757C115.814 24.4757 113.993 26.5853 113.993 29.9073C113.993 33.2293 115.777 35.2721 118.691 35.2721C121.016 35.2721 122.641 34.1266 123.098 32.2651H121.165Z" fill="white"/>
<path d="M78.55 31.2327C78.7048 33.7854 80.7858 35.4179 83.8831 35.4179C87.1933 35.4179 89.2646 33.7063 89.2646 30.9755C89.2646 28.8285 88.0838 27.6412 85.2188 26.9585L83.6798 26.5727C81.8602 26.1373 81.1246 25.5536 81.1246 24.5345C81.1246 23.2483 82.2667 22.4073 83.9799 22.4073C85.6059 22.4073 86.7287 23.2285 86.932 24.5444H89.042C88.9161 22.1401 86.8449 20.4482 84.0089 20.4482C80.96 20.4482 78.9275 22.1401 78.9275 24.6829C78.9275 26.7804 80.0793 28.0271 82.6055 28.6306L84.4058 29.0758C86.2544 29.5211 87.0675 30.1741 87.0675 31.2624C87.0675 32.5289 85.7898 33.449 84.0476 33.449C82.1796 33.449 80.8826 32.5882 80.6987 31.2327H78.55Z" fill="white"/>
<path d="M57.7517 24.5043C56.3697 24.5043 55.1743 25.2107 54.558 26.3944H54.4086V24.6762H52.4755V38.5273H54.4833V33.4966H54.6421C55.1743 34.5943 56.323 35.2435 57.7704 35.2435C60.3385 35.2435 61.9727 33.172 61.9727 29.8691C61.9727 26.5662 60.3385 24.5043 57.7517 24.5043ZM57.1821 33.4011C55.5012 33.4011 54.4459 32.0456 54.4459 29.8787C54.4459 27.7022 55.5012 26.3467 57.1914 26.3467C58.891 26.3467 59.9089 27.6736 59.9089 29.8691C59.9089 32.0742 58.891 33.4011 57.1821 33.4011Z" fill="white"/>
<path d="M68.9981 24.5043C67.616 24.5043 66.4207 25.2107 65.8044 26.3944H65.655V24.6762H63.7219V38.5273H65.7297V33.4966H65.8884C66.4207 34.5943 67.5694 35.2435 69.0168 35.2435C71.5849 35.2435 73.2191 33.172 73.2191 29.8691C73.2191 26.5662 71.5849 24.5043 68.9981 24.5043ZM68.4285 33.4011C66.7476 33.4011 65.6923 32.0456 65.6923 29.8787C65.6923 27.7022 66.7476 26.3467 68.4378 26.3467C70.1374 26.3467 71.1553 27.6736 71.1553 29.8691C71.1553 32.0742 70.1374 33.4011 68.4285 33.4011Z" fill="white"/>
<path d="M48.8733 35.0716H51.1769L46.1342 20.7945H43.8015L38.7588 35.0716H40.9849L42.2723 31.2822H47.5957L48.8733 35.0716ZM44.8565 23.3868H45.0211L47.044 29.4221H42.824L44.8565 23.3868Z" fill="white"/>
<path d="M40.1074 10.0259V16.9133H42.5401C44.5478 16.9133 45.7104 15.6484 45.7104 13.4481C45.7104 11.2812 44.5385 10.0259 42.5401 10.0259H40.1074ZM41.1533 10.9996H42.4233C43.8194 10.9996 44.6459 11.9064 44.6459 13.4624C44.6459 15.0423 43.8334 15.9396 42.4233 15.9396H41.1533V10.9996Z" fill="white"/>
<path d="M49.2712 17.0135C50.756 17.0135 51.6665 15.9969 51.6665 14.312C51.6665 12.6367 50.7513 11.6153 49.2712 11.6153C47.7864 11.6153 46.8712 12.6367 46.8712 14.312C46.8712 15.9969 47.7817 17.0135 49.2712 17.0135ZM49.2712 16.1019C48.398 16.1019 47.9078 15.448 47.9078 14.312C47.9078 13.1856 48.398 12.5269 49.2712 12.5269C50.1396 12.5269 50.6346 13.1856 50.6346 14.312C50.6346 15.4432 50.1396 16.1019 49.2712 16.1019Z" fill="white"/>
<path d="M59.4201 11.7155H58.4162L57.5104 15.6818H57.431L56.3851 11.7155H55.4233L54.3774 15.6818H54.3027L53.3922 11.7155H52.3743L53.7751 16.9133H54.807L55.8529 13.0854H55.9322L56.9828 16.9133H58.024L59.4201 11.7155Z" fill="white"/>
<path d="M60.5762 16.9133H61.5801V13.8729C61.5801 13.0615 62.0517 12.5556 62.7941 12.5556C63.5365 12.5556 63.8913 12.9708 63.8913 13.8061V16.9133H64.8952V13.5483C64.8952 12.3121 64.2695 11.6153 63.1349 11.6153C62.3692 11.6153 61.8649 11.9637 61.6174 12.5412H61.5427V11.7155H60.5762V16.9133Z" fill="white"/>
<path d="M66.4762 16.9133H67.4801V9.68701H66.4762V16.9133Z" fill="white"/>
<path d="M71.2556 17.0135C72.7404 17.0135 73.6509 15.9969 73.6509 14.312C73.6509 12.6367 72.7357 11.6153 71.2556 11.6153C69.7708 11.6153 68.8556 12.6367 68.8556 14.312C68.8556 15.9969 69.7661 17.0135 71.2556 17.0135ZM71.2556 16.1019C70.3824 16.1019 69.8922 15.448 69.8922 14.312C69.8922 13.1856 70.3824 12.5269 71.2556 12.5269C72.1241 12.5269 72.619 13.1856 72.619 14.312C72.619 15.4432 72.1241 16.1019 71.2556 16.1019Z" fill="white"/>
<path d="M76.642 16.1353C76.0957 16.1353 75.6988 15.8632 75.6988 15.3955C75.6988 14.9373 76.0163 14.6938 76.7167 14.6461L77.9587 14.565V14.9993C77.9587 15.6437 77.3984 16.1353 76.642 16.1353ZM76.3852 16.9992C77.0528 16.9992 77.6085 16.7032 77.912 16.183H77.9914V16.9133H78.9579V13.3622C78.9579 12.2644 78.2388 11.6153 76.9641 11.6153C75.8108 11.6153 74.9891 12.188 74.8863 13.0806H75.8575C75.9696 12.7131 76.3571 12.5031 76.9174 12.5031C77.6038 12.5031 77.9587 12.8133 77.9587 13.3622V13.8108L76.5813 13.892C75.3719 13.9683 74.6902 14.5077 74.6902 15.4432C74.6902 16.393 75.4046 16.9992 76.3852 16.9992Z" fill="white"/>
<path d="M82.3645 16.9992C83.0649 16.9992 83.6579 16.6603 83.9614 16.0923H84.0408V16.9133H85.0026V9.68701H83.9987V12.5412H83.924C83.6485 11.9685 83.0602 11.6296 82.3645 11.6296C81.0805 11.6296 80.254 12.6701 80.254 14.312C80.254 15.9587 81.0712 16.9992 82.3645 16.9992ZM82.6493 12.5508C83.4898 12.5508 84.0174 13.2333 84.0174 14.3168C84.0174 15.405 83.4945 16.078 82.6493 16.078C81.7995 16.078 81.2906 15.4146 81.2906 14.312C81.2906 13.219 81.8042 12.5508 82.6493 12.5508Z" fill="white"/>
<path d="M91.5124 17.0135C92.9972 17.0135 93.9077 15.9969 93.9077 14.312C93.9077 12.6367 92.9925 11.6153 91.5124 11.6153C90.0276 11.6153 89.1124 12.6367 89.1124 14.312C89.1124 15.9969 90.0229 17.0135 91.5124 17.0135ZM91.5124 16.1019C90.6393 16.1019 90.149 15.448 90.149 14.312C90.149 13.1856 90.6393 12.5269 91.5124 12.5269C92.3809 12.5269 92.8758 13.1856 92.8758 14.312C92.8758 15.4432 92.3809 16.1019 91.5124 16.1019Z" fill="white"/>
<path d="M95.2365 16.9133H96.2404V13.8729C96.2404 13.0615 96.712 12.5556 97.4544 12.5556C98.1968 12.5556 98.5517 12.9708 98.5517 13.8061V16.9133H99.5555V13.5483C99.5555 12.3121 98.9299 11.6153 97.7953 11.6153C97.0295 11.6153 96.5252 11.9637 96.2778 12.5412H96.2031V11.7155H95.2365V16.9133Z" fill="white"/>
<path d="M104.179 10.422V11.7394H103.371V12.6033H104.179V15.5386C104.179 16.541 104.623 16.9419 105.738 16.9419C105.935 16.9419 106.121 16.918 106.285 16.8894V16.035C106.145 16.0494 106.056 16.0589 105.902 16.0589C105.402 16.0589 105.183 15.8203 105.183 15.2761V12.6033H106.285V11.7394H105.183V10.422H104.179Z" fill="white"/>
<path d="M107.632 16.9133H108.636V13.8777C108.636 13.0901 109.094 12.5603 109.916 12.5603C110.625 12.5603 111.003 12.9803 111.003 13.8108V16.9133H112.007V13.5579C112.007 12.3217 111.34 11.6201 110.256 11.6201C109.491 11.6201 108.954 11.9685 108.706 12.5508H108.627V9.68701H107.632V16.9133Z" fill="white"/>
<path d="M115.629 12.4887C116.371 12.4887 116.857 13.0185 116.88 13.8347H114.312C114.368 13.0233 114.886 12.4887 115.629 12.4887ZM116.875 15.51C116.689 15.9157 116.273 16.14 115.666 16.14C114.863 16.14 114.345 15.5625 114.312 14.6509V14.5936H117.903V14.2356C117.903 12.6033 117.048 11.6153 115.633 11.6153C114.2 11.6153 113.289 12.6701 113.289 14.3311C113.289 15.9921 114.181 17.0135 115.638 17.0135C116.801 17.0135 117.613 16.4407 117.842 15.51H116.875Z" fill="white"/>
<path d="M27.8648 23.354C27.8891 21.4209 28.9047 19.5917 30.5159 18.5792C29.4995 17.0953 27.797 16.1545 26.0258 16.0978C24.1367 15.8951 22.3052 17.2534 21.3426 17.2534C20.3613 17.2534 18.8791 16.118 17.283 16.1515C15.2026 16.2202 13.2631 17.4293 12.251 19.2886C10.0752 23.1393 11.6981 28.7985 13.7823 31.9111C14.8251 33.4352 16.0438 35.1377 17.6384 35.0774C19.1988 35.0112 19.7816 34.0602 21.6652 34.0602C23.5313 34.0602 24.0781 35.0774 25.7051 35.039C27.3795 35.0112 28.4345 33.5081 29.4407 31.9695C30.1899 30.8835 30.7664 29.6832 31.1489 28.4131C29.1811 27.5623 27.867 25.538 27.8648 23.354Z" fill="white"/>
<path d="M24.7916 14.0508C25.7046 12.9305 26.1544 11.4905 26.0455 10.0366C24.6507 10.1864 23.3622 10.8678 22.4369 11.9452C21.5321 12.9978 21.0612 14.4125 21.1503 15.8108C22.5456 15.8255 23.9173 15.1625 24.7916 14.0508Z" fill="white"/>
</svg>
