<svg width="16" height="16" viewBox="0 0 16 16" fill="none" xmlns="http://www.w3.org/2000/svg">
<g id="heroicons-mini/minus">
<path d="M0 2C0 0.895431 0.895431 0 2 0H14C15.1046 0 16 0.895431 16 2V14C16 15.1046 15.1046 16 14 16H2C0.895431 16 0 15.1046 0 14V2Z" fill="#FFE9E9"/>
<path id="Rectangle 4922 (Stroke)" fill-rule="evenodd" clip-rule="evenodd" d="M3.2002 8.00039C3.2002 7.66902 3.46882 7.40039 3.8002 7.40039L12.2002 7.40039C12.5316 7.40039 12.8002 7.66902 12.8002 8.00039C12.8002 8.33176 12.5316 8.60039 12.2002 8.60039L3.8002 8.60039C3.46882 8.60039 3.2002 8.33176 3.2002 8.00039Z" fill="#FEFEFE"/>
</g>
</svg>
