<svg width="56" height="58" viewBox="0 0 56 58" fill="none" xmlns="http://www.w3.org/2000/svg">
<path d="M23.1549 18.9291L26.2089 22.5786C26.4829 22.9059 26.8308 23.1634 27.2239 23.3298C27.6169 23.4962 28.044 23.5667 28.4697 23.5356L42.0362 22.5382C43.0483 22.4638 44.0485 22.7944 44.817 23.4572C45.5855 24.12 46.0594 25.0608 46.1344 26.0729L47.9783 51.1323C48.0509 52.1434 47.7196 53.142 47.057 53.909C46.3943 54.6761 45.4545 55.1491 44.4437 55.2242L6.83 57.989C5.81755 58.0633 4.81702 57.7325 4.04847 57.0693C3.27992 56.406 2.80629 55.4646 2.73176 54.4522L0.351924 22.1809C0.299813 21.4699 0.532236 20.7674 0.998071 20.2278C1.46391 19.6881 2.12501 19.3557 2.83597 19.3034L20.8963 17.9721C21.3217 17.9408 21.7485 18.0113 22.1412 18.1777C22.534 18.3441 22.8815 18.6017 23.1549 18.9291Z" fill="#67B5DC"/>
<g opacity="0.3">
<path d="M23.1549 18.9291L26.2089 22.5786C26.4829 22.9059 26.8308 23.1634 27.2239 23.3298C27.6169 23.4962 28.044 23.5667 28.4697 23.5356L42.0362 22.5382C43.0483 22.4638 44.0485 22.7944 44.817 23.4572C45.5855 24.12 46.0594 25.0608 46.1344 26.0729L47.9783 51.1323C48.0509 52.1434 47.7196 53.142 47.057 53.909C46.3943 54.6761 45.4545 55.1491 44.4437 55.2242L6.83 57.989C5.81755 58.0633 4.81702 57.7325 4.04847 57.0693C3.27992 56.406 2.80629 55.4646 2.73176 54.4522L0.351924 22.1809C0.299813 21.4699 0.532236 20.7674 0.998071 20.2278C1.46391 19.6881 2.12501 19.3557 2.83597 19.3034L20.8963 17.9721C21.3217 17.9408 21.7485 18.0113 22.1412 18.1777C22.534 18.3441 22.8815 18.6017 23.1549 18.9291Z" fill="#FEFEFE"/>
</g>
<path d="M16.3364 20.1568L3.45977 21.1047C3.16809 21.1261 2.94905 21.38 2.97052 21.6717L2.97145 21.6844C2.99292 21.9761 3.24678 22.1951 3.53846 22.1737L16.4151 21.2258C16.7068 21.2043 16.9258 20.9505 16.9044 20.6588L16.9034 20.6461C16.882 20.3544 16.6281 20.1353 16.3364 20.1568Z" fill="#67B5DC"/>
<path d="M14.4868 22.6715L3.51491 23.4395C3.22244 23.46 3.00195 23.7137 3.02242 24.0061L3.02331 24.0189C3.04379 24.3113 3.29748 24.5318 3.58994 24.5114L14.5618 23.7433C14.8543 23.7229 15.0748 23.4692 15.0543 23.1767L15.0534 23.1639C15.033 22.8715 14.7793 22.651 14.4868 22.6715Z" fill="#67B5DC"/>
<path d="M45.6795 53.8014L6.16243 56.7129C5.68525 56.7469 5.21402 56.5906 4.85176 56.2781C4.48949 55.9657 4.26567 55.5225 4.22922 55.0455L2.43637 30.6794C2.4018 30.2021 2.55791 29.7305 2.87047 29.3681C3.18302 29.0057 3.62653 28.7821 4.10374 28.7461L43.623 25.8368C44.1003 25.8022 44.5718 25.9583 44.9342 26.2709C45.2966 26.5834 45.5203 27.0269 45.5562 27.5041L47.3512 51.8682C47.3846 52.3459 47.2275 52.8174 46.9142 53.1797C46.601 53.5419 46.1571 53.7654 45.6795 53.8014Z" fill="#67B5DC"/>
<path d="M43.6193 25.838L4.66695 28.7053C3.67243 28.7785 2.92556 29.6441 2.99876 30.6386L4.79222 55.0027C4.86543 55.9972 5.73099 56.7441 6.72551 56.6708L45.6779 53.8035C46.6724 53.7303 47.4192 52.8648 47.346 51.8702L45.5526 27.5062C45.4794 26.5117 44.6138 25.7648 43.6193 25.838Z" fill="#F5F5F5"/>
<path d="M8.00391 56.5771L16.1579 55.9753L8.77592 31.6963L8.00391 56.5771Z" fill="#67B5DC"/>
<path d="M53.3651 46.9997L14.2925 53.5778C13.8191 53.6553 13.3343 53.5422 12.9441 53.2632C12.5539 52.9842 12.2901 52.562 12.2104 52.0891L8.15469 28.0015C8.0772 27.5284 8.19037 27.0438 8.4694 26.654C8.74843 26.2642 9.17059 26.0008 9.64342 25.9215L48.716 19.3435C49.1895 19.2654 49.6746 19.3783 50.0649 19.6574C50.4552 19.9365 50.7189 20.359 50.7981 20.8322L54.8538 44.9219C54.9301 45.3946 54.8164 45.8783 54.5376 46.2676C54.2587 46.6568 53.8372 46.92 53.3651 46.9997Z" fill="#0860E6"/>
<path opacity="0.3" d="M48.7148 19.3443L10.1995 25.831C9.21612 25.9966 8.5532 26.928 8.71882 27.9114L12.7762 52.0021C12.9418 52.9854 13.8732 53.6483 14.8566 53.4827L53.3719 46.996C54.3552 46.8304 55.0182 45.899 54.8525 44.9156L50.7952 20.8249C50.6296 19.8416 49.6981 19.1786 48.7148 19.3443Z" fill="#F5F5F5"/>
<path opacity="0.2" d="M48.2204 24.533L12.3592 30.5688C12.1509 30.6033 11.9374 30.554 11.7653 30.4317C11.5931 30.3094 11.4764 30.1239 11.4405 29.9158L11.2405 28.7185C11.2232 28.6154 11.2263 28.5099 11.2497 28.4081C11.2731 28.3062 11.3164 28.21 11.377 28.1249C11.4377 28.0397 11.5145 27.9674 11.6031 27.912C11.6917 27.8565 11.7904 27.8191 11.8935 27.8019L47.7547 21.764C47.9631 21.7289 48.1769 21.7779 48.3492 21.9004C48.5214 22.0228 48.6381 22.2086 48.6734 22.4169L48.8755 23.6143C48.9094 23.8228 48.8596 24.0363 48.7369 24.2084C48.6143 24.3804 48.4287 24.4971 48.2204 24.533Z" fill="#FEFEFE"/>
<path opacity="0.2" d="M48.6077 26.6875L12.6954 32.7339C12.595 32.7501 12.4989 32.7861 12.4124 32.8396C12.326 32.8931 12.251 32.9632 12.1917 33.0458C12.1324 33.1284 12.09 33.2219 12.067 33.3209C12.0439 33.42 12.0407 33.5226 12.0574 33.6229L12.2339 34.6862C12.2502 34.7866 12.2861 34.8828 12.3396 34.9692C12.3931 35.0556 12.4632 35.1307 12.5458 35.1899C12.6284 35.2492 12.7219 35.2916 12.821 35.3147C12.92 35.3377 13.0226 35.341 13.1229 35.3243L49.0351 29.2779C49.1353 29.2616 49.2313 29.2258 49.3175 29.1724C49.4038 29.119 49.4787 29.0491 49.538 28.9667C49.5973 28.8844 49.6397 28.7911 49.6629 28.6924C49.6861 28.5936 49.6896 28.4912 49.6732 28.3911L49.4945 27.3277C49.4616 27.1253 49.3498 26.9442 49.1835 26.8242C49.0172 26.7042 48.8101 26.655 48.6077 26.6875Z" fill="#FEFEFE"/>
<path d="M52.0272 54.1665L52.0273 54.1665C52.9192 54.1011 53.7487 53.6843 54.3336 53.0078C54.9183 52.3314 55.2107 51.4507 55.1467 50.559L52.0272 54.1665ZM52.0272 54.1665L10.6584 57.212L10.6577 57.212L9.56523 57.2908C9.66772 57.1931 9.76583 57.09 9.85913 56.9819C10.6174 56.1029 10.9955 54.9588 10.9102 53.8011L9.66817 36.8469L9.66803 36.8451C9.64729 36.5753 9.68011 36.3041 9.76459 36.0471C9.84907 35.79 9.98355 35.5522 10.1603 35.3474C10.337 35.1425 10.5525 34.9746 10.7944 34.8533C11.0363 34.7321 11.2997 34.6598 11.5696 34.6408L11.5711 34.6407L51.6901 31.6909L51.6922 31.6907C51.9621 31.6698 52.2335 31.7024 52.4907 31.7868C52.7479 31.8712 52.9859 32.0056 53.191 32.1823C53.396 32.3591 53.5641 32.5747 53.6855 32.8167C53.8068 33.0587 53.8791 33.3223 53.8982 33.5923L53.8983 33.5939L55.1466 50.5582L52.0272 54.1665Z" fill="#FEFEFE" stroke="#67B5DC"/>
<path d="M32.0029 17.3757L33.9505 13.9674C32.756 12.027 32.3305 9.71002 32.7575 7.47181C33.1845 5.2336 34.4332 3.23604 36.2582 1.87173C38.0832 0.50742 40.3525 -0.124972 42.6201 0.0988512C44.8876 0.322674 46.9895 1.38652 48.5125 3.0813C50.0356 4.77609 50.8697 6.97923 50.8509 9.25774C50.8321 11.5362 49.9617 13.7253 48.4109 15.3947C46.8601 17.0641 44.741 18.0932 42.47 18.2795C40.1991 18.4659 37.9405 17.7961 36.1383 16.4019L32.0029 17.3757Z" fill="#67B5DC"/>
<path d="M32.0032 17.3762L36.1192 16.3634L36.0932 16.4316L35.8952 16.1719L36.1549 16.3732C37.4199 17.3455 38.9192 17.967 40.5012 18.1747C40.9745 18.2375 41.4524 18.2592 41.9295 18.2396C42.1762 18.2396 42.4261 18.2169 42.676 18.1974L43.4388 18.0773C45.1963 17.7296 46.8118 16.8702 48.0824 15.6071C49.3529 14.3441 50.2219 12.7337 50.58 10.9783C50.8366 9.65332 50.7989 8.28812 50.4696 6.97928C50.1291 5.61245 49.4682 4.34626 48.5415 3.28536C47.602 2.19738 46.4155 1.35034 45.0813 0.815163C43.7974 0.304739 42.4149 0.0905991 41.0368 0.188691C39.7387 0.276128 38.4755 0.64732 37.3364 1.27609C35.2885 2.41064 33.7546 4.28846 33.0517 6.5216C32.7692 7.46921 32.6324 8.45425 32.6459 9.44298C32.6851 11.0293 33.1407 12.5775 33.9671 13.9322V13.9549V13.9744L32 17.3632L33.8957 13.9484V13.9906C33.0453 12.6236 32.5727 11.0555 32.5258 9.44623C32.5075 8.44404 32.641 7.44485 32.9219 6.48265C33.6263 4.21015 35.1795 2.29658 37.2585 1.13976C38.4166 0.496662 39.7022 0.116536 41.0238 0.0263918C42.4527 -0.082285 43.8871 0.145661 45.2119 0.691923C46.5367 1.23819 47.7149 2.08753 48.6519 3.17174C49.5899 4.25503 50.2574 5.54552 50.5995 6.93708C50.9342 8.2684 50.9708 9.65721 50.7066 11.0043C50.4495 12.2798 49.9215 13.4853 49.1583 14.5392C47.7868 16.4423 45.7436 17.7534 43.4421 18.2071L42.6695 18.3207C42.4131 18.3435 42.1599 18.35 41.91 18.3629C41.4262 18.3811 40.9417 18.3561 40.4623 18.2883C38.8627 18.0715 37.3499 17.4316 36.0802 16.4348L36.1386 16.3764L36.1776 16.4283L36.1159 16.4446L32.0032 17.3762Z" fill="#2A71FF"/>
<path d="M44.1611 13.5186L45.7402 11.9395L38.6663 4.86547L37.0871 6.44461L44.1611 13.5186Z" fill="#FEFEFE"/>
<path d="M37.0879 11.9394L38.667 13.5186L45.741 6.44458L44.1618 4.86544L37.0879 11.9394Z" fill="#FEFEFE"/>
</svg>
