<svg width="178" height="150" viewBox="0 0 178 150" fill="none" xmlns="http://www.w3.org/2000/svg">
<path d="M89.0003 150.008C138.154 150.008 178.001 144.797 178.001 138.367C178.001 131.938 138.154 126.727 89.0003 126.727C39.8468 126.727 0 131.938 0 138.367C0 144.797 39.8468 150.008 89.0003 150.008Z" fill="#0860E6"/>
<path d="M178.001 103.968C178.001 120.799 167.22 131.592 149.055 137.269C149.053 137.269 149.047 137.271 149.045 137.271C140.938 139.803 131.358 141.318 120.612 141.894C117.269 142.071 113.811 142.16 110.248 142.16C69.5935 142.16 17.4684 141.185 5.87195 123.064C3.53326 119.412 1.8225 115.14 0.867649 110.51C-1.85821 97.271 1.61837 81.1229 14.4391 68.3048C36.1253 46.6186 66.1038 58.7121 77.1144 58.7121C90.7643 58.7121 100.438 50.9925 129.289 55.8241C158.14 60.6557 178.001 77.2852 178.001 103.968Z" fill="#67B5DC"/>
<path d="M64.1203 65.8396C59.3432 64.298 52.2613 60.6787 52.2613 63.8804C52.2613 67.0821 56.0109 68.8588 49.2966 67.9705C42.5824 67.0822 35.879 67.9215 33.7754 70.0251C33.7754 70.0251 40.5768 74.4068 47.0294 75.0171C53.4821 75.6275 67.0849 83.4753 74.8455 85.2193C82.6061 86.9632 119.229 91.9334 119.229 91.9334C119.229 91.9334 125.769 96.2061 128.211 98.6477C130.652 101.089 132.004 101.351 132.004 99.7377C132.004 98.1246 127.535 93.6557 126.445 92.5658C125.355 91.4759 125.42 82.5163 128.734 79.2028C132.047 75.8893 124.635 76.238 122.02 75.2789C119.404 74.3197 125.595 67.3438 119.404 64.8152C113.213 62.2865 109.54 63.485 107.339 63.485C105.138 63.485 104.047 60.1272 97.0759 60.9016C90.1052 61.6758 74.3923 69.1545 64.1203 65.8396Z" fill="#BFEAFF"/>
<path d="M70.71 30.9816C70.71 30.9816 76.3939 23.5756 82.9552 29.0633C87.7511 33.0744 85.0043 38.0011 85.0043 42.3174C85.0043 46.6336 87.7511 46.3284 87.7511 51.0807C87.7511 55.833 82.874 59.8876 77.1159 57.0973C71.3579 54.307 69.7012 43.3637 71.2707 37.6086C72.8402 31.8536 70.71 30.9816 70.71 30.9816Z" fill="#2A71FF"/>
<path d="M56.7305 55.8626C58.1911 59.3211 55.488 62.4747 60.7198 65.999C65.9516 69.5234 86.4641 64.3978 87.5 52.9217C88.5359 41.4457 58.7578 50.4858 56.7305 55.8626Z" fill="#2A71FF"/>
<path d="M84.2195 55.8237C84.2195 55.8237 88.7538 50.0357 92.9828 50.5588C97.2119 51.082 105.016 63.6167 108.744 68.5215C112.472 73.4264 114.237 79.5085 108.744 79.5085C103.25 79.5085 97.5607 76.1731 97.5607 76.1731C97.5607 76.1731 72.6493 83.04 68.0034 81.1435C63.3574 79.2469 59.3027 72.1839 59.3027 66.8866C59.3027 61.5893 60.7415 58.1214 65.6464 56.9125C70.5512 55.7036 84.2195 55.8237 84.2195 55.8237Z" fill="#0860E6"/>
<path d="M87.4994 52.9231C87.4994 52.9231 86.5655 55.9288 84.3968 58.7174C82.7357 60.852 80.3552 62.8611 77.1141 63.3057C69.635 64.3364 66.2344 60.6087 66.2344 60.6087C66.2344 60.6087 70.5166 56.881 70.5166 54.1343C70.5166 51.3876 70.5166 48.837 70.5166 48.837L77.1141 48.1621C77.1141 48.1621 78.626 53.2527 80.7319 53.5666C80.8286 53.5823 80.9307 53.5927 81.038 53.6006C83.2536 53.7969 87.4994 52.9231 87.4994 52.9231Z" fill="#BFEAFF"/>
<path d="M77.418 34.7614C80.1846 34.1748 83.3471 36.8687 83.3471 38.9177C83.3471 41.4464 84.1755 43.452 83.3471 46.1551C82.5187 48.8582 81.1236 52.2153 79.3797 52.2153C77.6357 52.2153 72.927 51.3433 71.6191 47.5939C70.3111 43.8443 70.2239 39.1358 71.0523 36.8686C71.8807 34.6015 75.7121 35.1232 77.418 34.7614Z" fill="#BFEAFF"/>
<path d="M77.1151 31.6368C79.674 34.1957 77.0685 41.0542 74.4089 43.7138C71.7494 46.3733 78.6816 51.9943 74.4089 58.0126C70.1363 64.0309 65.6926 60.9863 61.5996 59.0818C59.3019 58.0126 55.4434 56.9242 55.4434 51.2564C55.4434 43.9754 64.3403 42.6322 63.7272 37.3047C63.0298 31.2445 69.5493 24.0709 77.1151 31.6368Z" fill="#2A71FF"/>
<path d="M105.223 60.2813C104.634 61.7934 97.1343 77.2954 97.1343 77.2954L80.7429 76.6441L80.3818 76.6311C80.3818 76.6311 80.4185 76.5473 80.4838 76.393C80.6591 75.977 81.0566 75.0458 81.5799 73.8241C83.5863 69.152 87.4814 60.2134 88.1982 59.4966C88.7972 58.895 104.93 58.6465 104.93 58.6465C104.93 58.6465 105.811 58.7667 105.223 60.2813Z" fill="#F5F5F5"/>
<path d="M105.223 60.2822C104.635 61.7943 97.1348 77.2963 97.1348 77.2963L80.7433 76.645L80.4844 76.3939C80.6597 75.9779 81.0572 75.0467 81.5805 73.825L105.223 60.2822Z" fill="#BDBDBD"/>
<path d="M107.339 74.21C107.339 74.7044 107.208 75.1333 106.959 75.4892C106.455 76.2164 105.46 76.6297 104.1 76.6297C102.073 76.6297 100.516 75.1255 100.516 75.1255C100.516 75.1255 99.2607 74.1445 98.8892 73.4043C98.5203 72.6614 99.5432 71.4188 99.5432 71.4188L98.999 70.7883C98.6614 70.4509 97.691 70.4822 96.5687 70.1448C96.417 70.1004 96.2862 70.0454 96.1763 69.988H96.1737C95.457 69.6191 95.4884 69.0646 95.4884 69.0646C94.769 69.0646 94.748 67.5395 94.748 67.5395H96.0769C95.6426 67.1027 95.8807 66.3178 95.8807 66.3178C95.8807 66.3178 97.8218 66.1661 99.7392 65.9988C101.607 65.8366 103.166 66.4147 103.252 66.4461C103.25 66.4146 103.171 65.8705 102.748 65.4467C102.313 65.0099 101.887 65.0439 100.94 64.6411C99.9903 64.2356 100.262 63.4194 100.262 63.4194C100.699 63.4194 102.29 63.4194 103.315 63.7673C104.341 64.1179 105.125 65.1197 105.735 65.7293C106.344 66.3415 105.9 67.3225 105.9 67.3225C106.855 68.2747 105.735 69.1536 105.735 69.1536C105.735 69.1536 106.106 69.5225 105.735 70.4825C105.683 70.6185 105.539 70.8069 105.337 71.0319C106.703 71.322 107.339 72.7059 107.339 74.21Z" fill="#D9F2FF"/>
<path d="M106.959 75.4874V75.49C106.454 76.2172 105.46 76.6306 104.1 76.6306C102.072 76.6306 100.516 75.1263 100.516 75.1263C100.516 75.1263 99.2601 74.1453 98.8886 73.4051C98.5198 72.6622 99.5426 71.4196 99.5426 71.4196L98.9984 70.7891C98.6609 70.4517 97.6905 70.4831 96.5681 70.1457C96.4164 70.1012 96.2857 70.0462 96.1758 69.9888C96.7305 69.9888 98.3444 70.0699 99.2155 70.287C100.089 70.5042 100.089 71.5505 100.089 71.7912C100.089 72.0319 99.9349 73.2378 100.089 73.8238C100.241 74.4072 101.766 74.2555 102.682 73.3399C103.597 72.4243 103.336 73.4472 103.336 74.3864C103.336 75.3225 105.392 76.5468 106.959 75.4874Z" fill="#67B5DC"/>
<path d="M100.569 67.7579C100.569 67.7579 101.856 67.4091 102.618 67.5835C103.381 67.7579 103.381 68.3029 103.381 68.3029C103.381 68.3029 101.332 67.7579 100.569 67.7579Z" fill="#67B5DC"/>
<path d="M80.3828 76.6311C80.3828 76.6311 95.7432 73.9345 108.875 77.6775C112.233 78.6347 114.891 83.6941 113.583 87.618C112.276 91.5419 96.8869 89.2464 92.9043 85.2636C88.9216 81.2809 80.3828 76.6311 80.3828 76.6311Z" fill="#67B5DC"/>
<path d="M91.2794 109.068C48.6423 101.874 28.3688 96.25 23.1368 87.6174C17.9049 78.9848 23.1368 68.3013 23.1368 68.3013C23.1368 68.3013 35.2722 69.1384 47.2321 69.6458C52.4326 69.8655 57.5991 70.0252 61.7218 70.0252C75.3247 70.0252 90.1047 79.7695 98.2141 82.7778C103.901 84.8889 109.342 85.522 114.244 87.0418C116.329 87.6879 118.32 88.4962 120.188 89.6472C126.445 93.5032 127.468 100.754 132.004 100.754C132.004 100.755 133.914 116.262 91.2794 109.068Z" fill="#67B5DC"/>
<path d="M136.843 106.234C130.893 104.548 139.207 116.601 141.077 114.731C142.947 112.861 136.843 106.234 136.843 106.234Z" fill="#BFEAFF"/>
<path d="M134.14 75.9539C132.408 77.6855 142.551 75.2642 141.433 74.1464C140.315 73.0287 135.329 74.7648 134.14 75.9539Z" fill="#BFEAFF"/>
<path d="M30.4609 69.9879C29.6617 69.1887 23.5723 69.6975 23.5723 72.4879C23.5723 75.2783 30.4609 69.9879 30.4609 69.9879Z" fill="#BFEAFF"/>
<path d="M48.5991 60.9009C47.3399 62.16 49.171 64.6784 50.4302 63.4192C51.6894 62.16 48.5991 60.9009 48.5991 60.9009Z" fill="#BFEAFF"/>
<path d="M138.603 139.83L120.613 141.893C117.269 142.071 113.811 142.16 110.248 142.16C69.594 142.16 17.4689 141.184 5.87246 123.063C3.53377 119.411 1.82302 115.14 0.868164 110.509L0.870816 110.502C8.73172 102.641 16.3362 118.093 38.8333 127.51C58.8922 135.907 106.88 143.365 138.603 139.83Z" fill="#BFEAFF"/>
<path d="M114.245 87.0416C111.736 89.7072 106.578 88.3758 100.569 87.345C93.7018 86.1678 82.4534 80.4128 76.8684 77.2946C71.2807 74.1764 68.9813 75.1704 60.872 75.1704C52.7626 75.1704 47.2324 69.6455 47.2324 69.6455C52.4329 69.8652 57.5994 70.0248 61.7221 70.0248C75.325 70.0248 90.105 79.7692 98.2144 82.7775C103.901 84.8886 109.343 85.5217 114.245 87.0416Z" fill="#BFEAFF"/>
<path d="M27.0312 33.9938C27.0312 31.8892 28.7373 30.1831 30.8419 30.1831H49.1162C51.2208 30.1831 52.9269 31.8892 52.9269 33.9938V44.3099C52.9269 46.4145 51.2208 48.1206 49.1162 48.1206H30.8419C28.7373 48.1206 27.0312 46.4145 27.0312 44.3099V33.9938Z" fill="#FEFEFE"/>
<path d="M32.3832 40.1841V35.1692H34.6666C35.0317 35.1692 35.3447 35.2332 35.6055 35.3613C35.8711 35.4846 36.0726 35.6648 36.2101 35.9019C36.3524 36.1343 36.4235 36.4164 36.4235 36.7484C36.4235 37.0708 36.3524 37.353 36.2101 37.5949C36.0679 37.832 35.864 38.0169 35.5984 38.1497C35.3376 38.2825 35.027 38.3489 34.6666 38.3489H33.3577V40.1841H32.3832ZM33.3577 37.5451H34.5029C34.8112 37.5451 35.0459 37.4834 35.2072 37.3601C35.3731 37.2321 35.4561 37.0305 35.4561 36.7555C35.4561 36.4852 35.3755 36.286 35.2143 36.158C35.053 36.0299 34.8159 35.9659 34.5029 35.9659H33.3577V37.5451ZM37.475 40.1841V35.1692H38.4495V40.1841H37.475Z" fill="#333333"/>
<g clip-path="url(#clip0_1602_21328)">
<path fill-rule="evenodd" clip-rule="evenodd" d="M57.373 37.6839C57.373 36.6579 58.2048 35.8262 59.2308 35.8262C60.2567 35.8262 61.0885 36.6579 61.0885 37.6839C61.0885 38.7099 60.2567 39.5416 59.2308 39.5416C58.2048 39.5416 57.373 38.7099 57.373 37.6839ZM59.9186 37.3382C59.9645 37.274 59.9496 37.1848 59.8854 37.1389C59.8212 37.093 59.7319 37.1079 59.6861 37.1721L59.0696 38.0352L58.7602 37.7257C58.7044 37.6699 58.6139 37.6699 58.5581 37.7257C58.5023 37.7815 58.5023 37.872 58.5581 37.9278L58.9868 38.3565C59.0165 38.3862 59.0578 38.4014 59.0996 38.3979C59.1415 38.3944 59.1797 38.3727 59.2041 38.3385L59.9186 37.3382Z" fill="#333333"/>
</g>
<path d="M31.4131 43.6611H61.5175" stroke="#0B0B0B" stroke-width="0.381068"/>
<path d="M31.4131 46.519H61.5175" stroke="#0B0B0B" stroke-width="0.381068"/>
<path d="M31.4131 49.377H61.5175" stroke="#0B0B0B" stroke-width="0.381068"/>
<path d="M59.1162 3.80238C59.1162 1.6978 60.8223 -0.00830078 62.9269 -0.00830078H81.2012C83.3057 -0.00830078 85.0118 1.6978 85.0118 3.80238V14.1185C85.0118 16.2231 83.3057 17.9292 81.2012 17.9292H62.9269C60.8223 17.9292 59.1162 16.2231 59.1162 14.1185V3.80238Z" fill="#FEFEFE"/>
<path d="M64.1968 9.99268V4.97782H66.4801C66.8453 4.97782 67.1583 5.04184 67.4191 5.16988C67.6847 5.29318 67.8862 5.47338 68.0237 5.71049C68.166 5.94285 68.2371 6.22501 68.2371 6.55697C68.2371 6.87944 68.166 7.1616 68.0237 7.40345C67.8815 7.64056 67.6775 7.8255 67.412 7.95828C67.1512 8.09106 66.8406 8.15745 66.4801 8.15745H65.1713V9.99268H64.1968ZM65.1713 7.35365H66.3165C66.6248 7.35365 66.8595 7.292 67.0208 7.16871C67.1867 7.04067 67.2697 6.83913 67.2697 6.56408C67.2697 6.29378 67.1891 6.0946 67.0279 5.96657C66.8666 5.83853 66.6295 5.77451 66.3165 5.77451H65.1713V7.35365ZM71.5301 10.0638C71.1555 10.0638 70.8164 10.0045 70.5129 9.88598C70.2142 9.76742 69.9557 9.5967 69.7376 9.37382C69.5194 9.1462 69.3511 8.87352 69.2325 8.5558C69.1187 8.23807 69.0618 7.88004 69.0618 7.48169C69.0618 7.08335 69.1187 6.72769 69.2325 6.4147C69.3511 6.09698 69.5194 5.82667 69.7376 5.60379C69.9557 5.37616 70.2142 5.20308 70.5129 5.08452C70.8164 4.96597 71.1555 4.90669 71.5301 4.90669C71.9 4.90669 72.2367 4.96597 72.5402 5.08452C72.8437 5.20308 73.1022 5.37379 73.3156 5.59668C73.5289 5.81956 73.6926 6.08986 73.8064 6.40759C73.9249 6.72531 73.9842 7.08098 73.9842 7.47458C73.9842 7.87292 73.9249 8.23096 73.8064 8.54868C73.6926 8.86641 73.5289 9.13908 73.3156 9.36671C73.1022 9.59433 72.8437 9.76742 72.5402 9.88598C72.2367 10.0045 71.9 10.0638 71.5301 10.0638ZM71.5301 9.21733C71.8384 9.21733 72.0992 9.15094 72.3126 9.01816C72.5307 8.88063 72.6967 8.68383 72.8105 8.42776C72.9291 8.16694 72.9883 7.85158 72.9883 7.48169C72.9883 7.10706 72.9314 6.79171 72.8176 6.53563C72.7038 6.27955 72.5378 6.08512 72.3197 5.95234C72.1016 5.81956 71.8384 5.75317 71.5301 5.75317C71.2219 5.75317 70.9587 5.81956 70.7405 5.95234C70.5224 6.08512 70.3541 6.27955 70.2355 6.53563C70.1217 6.79171 70.0648 7.10706 70.0648 7.48169C70.0648 7.85158 70.1217 8.16694 70.2355 8.42776C70.3541 8.68383 70.5224 8.88063 70.7405 9.01816C70.9587 9.15094 71.2219 9.21733 71.5301 9.21733Z" fill="#333333"/>
<g clip-path="url(#clip1_1602_21328)">
<path fill-rule="evenodd" clip-rule="evenodd" d="M89.458 7.49247C89.458 6.46649 90.2897 5.63477 91.3157 5.63477C92.3417 5.63477 93.1734 6.46649 93.1734 7.49247C93.1734 8.51845 92.3417 9.35018 91.3157 9.35018C90.2897 9.35018 89.458 8.51845 89.458 7.49247ZM92.0036 7.14683C92.0495 7.08261 92.0346 6.99336 91.9704 6.94749C91.9062 6.90162 91.8169 6.91649 91.771 6.98071L91.1546 7.84375L90.8452 7.53433C90.7894 7.47852 90.6989 7.47852 90.6431 7.53433C90.5873 7.59013 90.5873 7.68061 90.6431 7.73642L91.0718 8.16512C91.1015 8.19482 91.1427 8.20995 91.1846 8.20649C91.2265 8.20302 91.2647 8.18131 91.2891 8.14713L92.0036 7.14683Z" fill="#333333"/>
</g>
<path d="M63.498 13.4697H93.6024" stroke="#0B0B0B" stroke-width="0.381068"/>
<path d="M63.498 16.3276H93.6024" stroke="#0B0B0B" stroke-width="0.381068"/>
<path d="M63.498 19.1855H93.6024" stroke="#0B0B0B" stroke-width="0.381068"/>
<path d="M90.3174 21.7404C90.3174 19.6358 92.0235 17.9297 94.1281 17.9297H112.402C114.507 17.9297 116.213 19.6358 116.213 21.7404V32.0565C116.213 34.161 114.507 35.8671 112.402 35.8671H94.1281C92.0235 35.8671 90.3174 34.1611 90.3174 32.0565V21.7404Z" fill="#FEFEFE"/>
<path d="M95.5981 27.9307V22.9158H96.5726V27.9307H95.5981ZM97.8251 27.9307V24.374H98.7143V25.0925H98.7356C98.8542 24.8411 99.0249 24.6467 99.2478 24.5092C99.4754 24.3717 99.7291 24.3029 100.009 24.3029C100.303 24.3029 100.549 24.3574 100.749 24.4665C100.948 24.5756 101.097 24.7439 101.197 24.9715C101.301 25.1992 101.353 25.4861 101.353 25.8322V27.9307H100.386V25.8678C100.386 25.7066 100.362 25.5691 100.315 25.4552C100.272 25.3414 100.201 25.2537 100.101 25.1921C100.002 25.1304 99.8714 25.0996 99.7101 25.0996C99.5347 25.0996 99.3782 25.1399 99.2407 25.2205C99.1031 25.3011 98.9941 25.4102 98.9134 25.5477C98.8376 25.6805 98.7996 25.8322 98.7996 26.003V27.9307H97.8251ZM103.227 27.9307L101.989 24.374H102.949L103.718 26.885H103.725L104.628 24.374H105.354L106.25 26.885H106.257L107.032 24.374H107.979L106.741 27.9307H105.909L104.963 25.3699H105.005L104.052 27.9307H103.227ZM109.851 28.0018C109.59 28.0018 109.356 27.952 109.147 27.8524C108.938 27.7528 108.772 27.6201 108.649 27.4541C108.531 27.2834 108.471 27.0913 108.471 26.8779C108.471 26.6171 108.547 26.4037 108.699 26.2377C108.855 26.0717 109.093 25.9508 109.41 25.8749C109.733 25.7991 110.143 25.7611 110.641 25.7611H111.153V26.3444H110.698C110.48 26.3444 110.29 26.3515 110.129 26.3657C109.972 26.38 109.842 26.4061 109.738 26.444C109.633 26.4772 109.555 26.5246 109.503 26.5863C109.451 26.6479 109.425 26.7285 109.425 26.8281C109.425 26.9893 109.484 27.1079 109.602 27.1838C109.726 27.2596 109.887 27.2976 110.086 27.2976C110.257 27.2976 110.413 27.2596 110.556 27.1838C110.698 27.1032 110.812 26.9965 110.897 26.8637C110.982 26.7309 111.025 26.5863 111.025 26.4298V25.6686C111.025 25.4315 110.952 25.2679 110.804 25.1778C110.657 25.083 110.439 25.0356 110.15 25.0356C109.956 25.0356 109.754 25.064 109.545 25.1209C109.342 25.1731 109.121 25.2632 108.884 25.3912L108.621 24.7155C108.787 24.6206 108.96 24.5447 109.14 24.4878C109.325 24.4262 109.517 24.3811 109.716 24.3527C109.915 24.3195 110.115 24.3029 110.314 24.3029C110.65 24.3029 110.942 24.3551 111.189 24.4594C111.44 24.559 111.632 24.7178 111.765 24.936C111.898 25.1494 111.964 25.4315 111.964 25.7825V27.9307H111.16V27.2051H111.132C111.061 27.3521 110.966 27.4873 110.847 27.6106C110.733 27.7291 110.593 27.824 110.427 27.8951C110.262 27.9662 110.069 28.0018 109.851 28.0018ZM113.094 27.9307V24.374H113.94V25.2418H113.969C114.049 24.981 114.189 24.7676 114.388 24.6017C114.592 24.4357 114.843 24.3432 115.142 24.3242L115.562 24.2958L115.647 25.1849L114.979 25.2418C114.685 25.2656 114.459 25.3628 114.303 25.5335C114.146 25.6995 114.068 25.9058 114.068 26.1523V27.9307H113.094ZM117.768 28.0018C117.431 28.0018 117.14 27.9236 116.893 27.7671C116.646 27.6106 116.457 27.3924 116.324 27.1126C116.191 26.8328 116.125 26.5104 116.125 26.1452C116.125 25.7896 116.189 25.4718 116.317 25.1921C116.45 24.9123 116.637 24.6941 116.879 24.5376C117.125 24.3811 117.415 24.3029 117.747 24.3029C118.036 24.3029 118.28 24.3669 118.479 24.495C118.678 24.6183 118.828 24.7866 118.927 25H118.949V22.9158H119.916V27.9307H119.055V27.2122H119.027C118.913 27.473 118.747 27.6698 118.529 27.8026C118.316 27.9354 118.062 28.0018 117.768 28.0018ZM118.031 27.2478C118.325 27.2478 118.553 27.1506 118.714 26.9561C118.88 26.7617 118.963 26.4914 118.963 26.1452C118.963 25.8038 118.88 25.5359 118.714 25.3414C118.553 25.147 118.325 25.0498 118.031 25.0498C117.737 25.0498 117.505 25.147 117.334 25.3414C117.168 25.5359 117.085 25.8038 117.085 26.1452C117.085 26.4914 117.168 26.7617 117.334 26.9561C117.505 27.1506 117.737 27.2478 118.031 27.2478Z" fill="#333333"/>
<g clip-path="url(#clip2_1602_21328)">
<path fill-rule="evenodd" clip-rule="evenodd" d="M121.129 25.4305C121.129 24.4045 121.961 23.5728 122.987 23.5728C124.013 23.5728 124.844 24.4045 124.844 25.4305C124.844 26.4564 124.013 27.2882 122.987 27.2882C121.961 27.2882 121.129 26.4564 121.129 25.4305ZM123.674 25.0848C123.72 25.0206 123.705 24.9313 123.641 24.8855C123.577 24.8396 123.488 24.8545 123.442 24.9187L122.825 25.7817L122.516 25.4723C122.46 25.4165 122.37 25.4165 122.314 25.4723C122.258 25.5281 122.258 25.6186 122.314 25.6744L122.743 26.1031C122.772 26.1328 122.814 26.1479 122.855 26.1445C122.897 26.141 122.936 26.1193 122.96 26.0851L123.674 25.0848Z" fill="#333333"/>
</g>
<path d="M94.7002 31.4077H124.805" stroke="#0B0B0B" stroke-width="0.381068"/>
<path d="M94.7002 34.2656H124.805" stroke="#0B0B0B" stroke-width="0.381068"/>
<path d="M94.7002 37.1235H124.805" stroke="#0B0B0B" stroke-width="0.381068"/>
<defs>
<clipPath id="clip0_1602_21328">
<rect width="4.57281" height="4.57281" fill="white" transform="translate(56.9443 35.3975)"/>
</clipPath>
<clipPath id="clip1_1602_21328">
<rect width="4.57281" height="4.57281" fill="white" transform="translate(89.0293 5.20605)"/>
</clipPath>
<clipPath id="clip2_1602_21328">
<rect width="4.57281" height="4.57281" fill="white" transform="translate(120.7 23.144)"/>
</clipPath>
</defs>
</svg>
