<svg width="155" height="46" viewBox="0 0 155 46" fill="none" xmlns="http://www.w3.org/2000/svg">
<rect x="0.5" y="0.508301" width="154" height="45" rx="4.5" fill="black"/>
<rect x="0.5" y="0.508301" width="154" height="45" rx="4.5" stroke="#A6A6A6"/>
<path d="M122.777 34.5082H124.919V20.1314H122.777V34.5082ZM142.074 25.3105L139.618 31.5434H139.544L136.996 25.3105H134.688L138.511 34.0218L136.331 38.8679H138.565L144.456 25.3105H142.074ZM129.923 32.8753C129.223 32.8753 128.243 32.5235 128.243 31.6544C128.243 30.5447 129.463 30.1193 130.514 30.1193C131.456 30.1193 131.9 30.3224 132.472 30.6C132.305 31.932 131.161 32.8753 129.923 32.8753ZM130.182 24.996C128.631 24.996 127.025 25.6806 126.36 27.1972L128.262 27.9923C128.668 27.1972 129.425 26.9384 130.219 26.9384C131.327 26.9384 132.453 27.6037 132.472 28.7879V28.9356C132.084 28.7137 131.253 28.3809 130.238 28.3809C128.187 28.3809 126.101 29.5088 126.101 31.6174C126.101 33.5411 127.782 34.7804 129.665 34.7804C131.104 34.7804 131.9 34.1331 132.397 33.3744H132.472V34.4849H134.541V28.9724C134.541 26.42 132.637 24.996 130.182 24.996ZM116.942 27.0606H113.895V22.1327H116.942C118.544 22.1327 119.453 23.4606 119.453 24.5966C119.453 25.7107 118.544 27.0606 116.942 27.0606ZM116.887 20.1314H111.753V34.5082H113.895V29.0615H116.887C119.261 29.0615 121.595 27.34 121.595 24.5966C121.595 21.8537 119.261 20.1314 116.887 20.1314ZM88.8934 32.878C87.4133 32.878 86.1746 31.6363 86.1746 29.9325C86.1746 28.2088 87.4133 26.9496 88.8934 26.9496C90.3547 26.9496 91.5014 28.2088 91.5014 29.9325C91.5014 31.6363 90.3547 32.878 88.8934 32.878ZM91.3534 26.1155H91.2794C90.7987 25.5413 89.8734 25.0225 88.7087 25.0225C86.2666 25.0225 84.0286 27.172 84.0286 29.9325C84.0286 32.6741 86.2666 34.8047 88.7087 34.8047C89.8734 34.8047 90.7987 34.2858 91.2794 33.6933H91.3534V34.3968C91.3534 36.2687 90.3547 37.2687 88.7454 37.2687C87.4326 37.2687 86.6187 36.324 86.2854 35.5275L84.4175 36.3055C84.9534 37.602 86.3774 39.1958 88.7454 39.1958C91.2615 39.1958 93.3887 37.7134 93.3887 34.1003V25.319H91.3534V26.1155ZM94.8687 34.5082H97.0135V20.1314H94.8687V34.5082ZM100.177 29.7654C100.122 27.8755 101.639 26.9123 102.73 26.9123C103.581 26.9123 104.301 27.3386 104.543 27.9496L100.177 29.7654ZM106.836 28.1347C106.429 27.0422 105.19 25.0225 102.655 25.0225C100.139 25.0225 98.0494 27.0049 98.0494 29.9136C98.0494 32.6557 100.122 34.8047 102.895 34.8047C105.133 34.8047 106.429 33.4341 106.966 32.6372L105.301 31.5253C104.746 32.3407 103.988 32.878 102.895 32.878C101.805 32.878 101.028 32.3776 100.529 31.3956L107.057 28.6908L106.836 28.1347ZM54.8155 26.5233V28.5982H59.7726C59.6246 29.7654 59.2362 30.6175 58.6442 31.2105C57.9226 31.9328 56.7942 32.7297 54.8155 32.7297C51.7633 32.7297 49.3774 30.2657 49.3774 27.2088C49.3774 24.1519 51.7633 21.6875 54.8155 21.6875C56.4618 21.6875 57.6638 22.3361 58.5518 23.1699L60.0135 21.7059C58.7738 20.5204 57.1278 19.6126 54.8155 19.6126C50.6345 19.6126 47.1201 23.0217 47.1201 27.2088C47.1201 31.3956 50.6345 34.8047 54.8155 34.8047C57.0718 34.8047 58.7738 34.0635 60.1054 32.6741C61.4743 31.303 61.8999 29.3763 61.8999 27.8198C61.8999 27.3386 61.8626 26.8939 61.7886 26.5233H54.8155ZM67.5357 32.878C66.0556 32.878 64.7792 31.6552 64.7792 29.9136C64.7792 28.1535 66.0556 26.9496 67.5357 26.9496C69.0152 26.9496 70.2916 28.1535 70.2916 29.9136C70.2916 31.6552 69.0152 32.878 67.5357 32.878ZM67.5357 25.0225C64.8343 25.0225 62.6336 27.079 62.6336 29.9136C62.6336 32.7297 64.8343 34.8047 67.5357 34.8047C70.236 34.8047 72.4372 32.7297 72.4372 29.9136C72.4372 27.079 70.236 25.0225 67.5357 25.0225ZM78.2282 32.878C76.7491 32.878 75.4723 31.6552 75.4723 29.9136C75.4723 28.1535 76.7491 26.9496 78.2282 26.9496C79.7082 26.9496 80.9842 28.1535 80.9842 29.9136C80.9842 31.6552 79.7082 32.878 78.2282 32.878ZM78.2282 25.0225C75.5278 25.0225 73.3271 27.079 73.3271 29.9136C73.3271 32.7297 75.5278 34.8047 78.2282 34.8047C80.9295 34.8047 83.1303 32.7297 83.1303 29.9136C83.1303 27.079 80.9295 25.0225 78.2282 25.0225Z" fill="white"/>
<path d="M51.0659 15.228C50.0365 15.228 49.1511 14.8652 48.4373 14.1503C47.7231 13.435 47.3613 12.5392 47.3613 11.4977C47.3613 10.4562 47.7232 9.56204 48.4373 8.84507C49.1511 8.13006 50.0365 7.7674 51.0659 7.7674C51.5903 7.7674 52.0798 7.85812 52.5475 8.04703C53.0154 8.23597 53.3982 8.49825 53.6997 8.84148L53.7708 8.92256L52.9677 9.72666L52.8875 9.62784C52.6876 9.3818 52.4333 9.19066 52.1111 9.05171C51.7901 8.91312 51.4385 8.84911 51.0659 8.84911C50.3409 8.84911 49.7393 9.09572 49.2369 9.59706C49.2368 9.59718 49.2366 9.59717 49.2365 9.5973C48.7455 10.1087 48.4987 10.7315 48.4987 11.4977C48.4987 12.2646 48.7458 12.8874 49.2374 13.399C49.7397 13.9002 50.3413 14.1481 51.0659 14.1481C51.7296 14.1481 52.2785 13.9625 52.7101 13.5951H52.7103C53.1121 13.2532 53.3532 12.7911 53.4384 12.2021H50.9511V11.1419H54.5135L54.5287 11.239C54.5579 11.4253 54.5785 11.6052 54.5785 11.778C54.5785 12.7672 54.2774 13.5747 53.6867 14.1688C53.0198 14.8768 52.1428 15.228 51.0659 15.228L51.0659 15.228ZM81.9991 15.228C80.9682 15.228 80.0931 14.8651 79.3884 14.1503C79.3883 14.1503 79.3883 14.1502 79.3882 14.1501C79.3881 14.15 79.388 14.15 79.3879 14.1499C78.6823 13.4429 78.3322 12.5469 78.3322 11.4977C78.3322 10.4485 78.6823 9.55252 79.3879 8.84551C79.388 8.84543 79.388 8.8454 79.3882 8.84528L79.3884 8.84505C80.0931 8.13021 80.9682 7.76737 81.9991 7.76737C83.028 7.76737 83.9033 8.1303 84.608 8.85583C85.3139 9.56274 85.6642 10.457 85.6642 11.4977C85.6642 12.5469 85.3141 13.4429 84.6084 14.1499L84.6082 14.1501C83.9031 14.8653 83.0196 15.228 81.9991 15.228L81.9991 15.228ZM55.5979 15.0735V7.92193H55.7128H59.8622V9.00365H56.7156V10.9676H59.5537V12.0278H56.7156V13.9936H59.8622V15.0735H55.5979ZM62.472 15.0735V9.00365H60.5417V7.92193H65.52V9.00365H65.4052H63.5897V15.0735H62.472ZM68.7016 15.0735V7.92193H69.8193V8.03693V15.0735H68.7016ZM72.6327 15.0735V9.00365H70.7024V7.92193H75.6807V9.00365H75.5659H73.7503V15.0735H72.6327ZM86.6563 15.0735V7.92193H87.9165L91.1239 13.065L91.0964 12.0887V7.92193H92.214V15.0735H91.108L87.7463 9.67051L87.7739 10.6462V10.6478V15.0735H86.6563ZM81.9991 14.1481C82.7241 14.1481 83.316 13.9004 83.7984 13.3999L83.7991 13.399L83.7998 13.3983C84.2892 12.9081 84.5286 12.2769 84.5286 11.4977C84.5286 10.7203 84.2891 10.0871 83.7998 9.59703L83.7991 9.59634L83.7984 9.59565C83.3161 9.09525 82.7243 8.84904 81.9991 8.84904C81.2727 8.84904 80.6809 9.09482 80.1894 9.5952L80.1889 9.59566C79.7087 10.0976 79.4696 10.7205 79.4695 11.4976C79.4695 12.2767 79.7086 12.8976 80.1889 13.3996L80.1894 13.4001C80.681 13.9006 81.2728 14.148 81.9991 14.148V14.1481Z" fill="white"/>
<path d="M23.7833 22.3452L11.5596 35.3402C11.56 35.3429 11.5609 35.3451 11.5614 35.3478C11.9363 36.7588 13.223 37.7979 14.7502 37.7979C15.3606 37.7979 15.9338 37.6325 16.4253 37.3423L16.4643 37.3194L30.2238 29.3669L23.7833 22.3452Z" fill="#EA4335"/>
<path d="M36.1503 20.1325L36.1386 20.1244L30.1983 16.6752L23.5059 22.6401L30.2216 29.3657L36.1306 25.9508C37.1665 25.3906 37.8698 24.2968 37.8698 23.0353C37.8698 21.783 37.1759 20.6945 36.1503 20.1325Z" fill="#FBBC04"/>
<path d="M11.5594 10.6764C11.4859 10.9478 11.4473 11.2321 11.4473 11.5273V34.49C11.4473 34.7847 11.4854 35.0699 11.5598 35.3403L24.2043 22.6778L11.5594 10.6764Z" fill="#4285F4"/>
<path d="M23.8739 23.0083L30.2009 16.673L16.4571 8.69172C15.9576 8.39203 15.3745 8.21907 14.7506 8.21907C13.2235 8.21907 11.935 9.25994 11.56 10.6727C11.5596 10.6741 11.5596 10.675 11.5596 10.6763L23.8739 23.0083Z" fill="#34A853"/>
</svg>
