<svg width="32" height="32" viewBox="0 0 32 32" fill="none" xmlns="http://www.w3.org/2000/svg">
<path d="M0 2C0 0.895431 0.895431 0 2 0H30C31.1046 0 32 0.895431 32 2V30C32 31.1046 31.1046 32 30 32H2C0.895431 32 0 31.1046 0 30V2Z" fill="#FEFEFE"/>
<path fill-rule="evenodd" clip-rule="evenodd" d="M11.7337 10.667H10.667V21.3337H11.7337V10.667ZM12.8003 10.667H12.267V21.3337H12.8003V10.667ZM13.867 10.667H15.467V21.3337H13.867V10.667ZM17.067 10.667H16.0003V21.3337H17.067V10.667ZM20.267 10.667H21.3337V21.3337H20.267V10.667ZM19.2003 10.667H18.1337V21.3337H19.2003V10.667Z" fill="#6B6B6B"/>
<path fill-rule="evenodd" clip-rule="evenodd" d="M8 8H8.38954H8.38957H12.6748V8.35368L8.38957 8.35368V11.8905H8V8ZM23.6184 8V8.35362V8.35368V12.2441H23.2289L23.2289 8.35368L19.3332 8.35368V8H23.6184ZM19.5654 23.6463V24H23.8506V23.6463H19.5654ZM23.8507 24L24.2402 24V20.1095H23.8507V24ZM8 24V23.6463V23.6463V19.7558H8.38957V23.6463H12.2852V24H8Z" fill="#6B6B6B"/>
</svg>
