<svg width="17" height="16" viewBox="0 0 17 16" fill="none" xmlns="http://www.w3.org/2000/svg">
<g id="scanner">
<path id="Union" fill-rule="evenodd" clip-rule="evenodd" d="M3.73317 2.66699H2.6665V13.3337H3.73317V2.66699ZM4.79984 2.66699H4.2665V13.3337H4.79984V2.66699ZM5.8665 2.66699H7.4665V13.3337H5.8665V2.66699ZM9.0665 2.66699H7.99984V13.3337H9.0665V2.66699ZM12.2665 2.66699H13.3332V13.3337H12.2665V2.66699ZM11.1998 2.66699H10.1332V13.3337H11.1998V2.66699Z" fill="#6B6B6B"/>
<path id="Union_2" fill-rule="evenodd" clip-rule="evenodd" d="M0 0H0.389538H0.389566H4.67476V0.353684L0.389566 0.353684V3.89052H0V0ZM15.6184 0V0.353619V0.353684V4.24414H15.2289L15.2289 0.353684L11.3332 0.353684V0H15.6184ZM11.5654 15.6463V16H15.8506V15.6463H11.5654ZM15.8507 16L16.2402 16V12.1095H15.8507V16ZM0 16V15.6463V15.6463V11.7558H0.389565V15.6463H4.28522V16H0Z" fill="#6B6B6B"/>
</g>
</svg>
