<svg width="160" height="198" viewBox="0 0 160 198" fill="none" xmlns="http://www.w3.org/2000/svg">
<path d="M103.202 70.2632C103.142 76.6923 103.094 83.1514 102.75 89.5744C102.539 93.4945 102.056 97.3362 101.447 101.166C99.9816 102.306 98.2447 103.367 96.1761 104.314C96.339 103.343 96.4897 102.372 96.6465 101.419C97.3944 96.8296 97.6899 92.2461 97.9492 87.6083C97.9613 87.4515 97.72 87.4575 97.708 87.6143C97.2677 92.3607 96.4415 97.1131 95.573 101.805C95.38 102.824 95.1629 103.844 94.9277 104.851C93.2873 105.526 91.4599 106.135 89.4214 106.648C89.6627 105.532 89.8738 104.417 90.0909 103.319C90.6035 100.738 91.0619 98.1444 91.4358 95.533C92.1716 90.3825 92.5636 85.208 92.6842 80.0093C92.6902 79.7922 92.3766 79.8163 92.3585 80.0213C91.8941 85.3407 91.2187 90.6539 90.3683 95.919C89.9642 98.4097 89.5179 100.907 89.0113 103.379C88.7701 104.567 88.4806 105.743 88.2032 106.938C85.1576 107.625 81.6837 108.12 77.6912 108.361C67.5291 108.982 57.1136 106.28 47.6389 102.577C39.5333 99.3988 31.9162 94.6223 25.9396 88.0666C29.136 84.6893 31.7052 80.5038 33.6532 76.4631C33.7135 76.3244 33.5325 76.2279 33.4481 76.3485C31.7232 78.9297 29.8959 81.4205 27.9539 83.8329C27.0432 84.9667 26.0722 86.0463 25.1073 87.1379C25.0168 87.0354 24.9384 86.9389 24.848 86.8363C24.281 86.1729 23.684 85.4733 23.105 84.7195C25.0108 82.4759 26.6814 79.9852 28.2916 77.5547C30.6015 74.0748 32.6641 70.4804 34.2924 66.6266C34.401 66.3733 34.0693 66.1803 33.9185 66.4155C31.7112 69.829 29.6064 73.3029 27.3448 76.6862C25.7586 79.0685 23.9976 81.3482 22.3391 83.6821C20.7047 81.3482 19.4744 78.6764 20.0956 75.7755C20.6082 73.3813 22.1823 71.4333 23.5211 69.4853C25.0349 67.3081 26.0662 64.8113 27.6825 62.7065C39.5695 47.219 37.8869 6.23256 58.0363 6.31096C58.1087 6.19637 82.5703 -4.13466 94.8131 7.69808C114.239 26.4664 109.927 85.0391 108.696 90.1172C107.961 93.1085 106.399 96.6909 102.949 99.8933C103.443 96.6487 103.691 93.3618 103.86 90.1594C104.209 83.5072 103.896 76.8913 103.534 70.2452C103.516 70.0401 103.202 70.0461 103.202 70.2632Z" fill="#2A71FF"/>
<path d="M80.2184 89.1643C111.929 112.016 156.872 162.471 147.047 178.676C141.547 187.752 126.494 179.936 119.42 175.92C107.792 169.322 79.8807 124.783 67.3001 100.092C54.4662 74.9132 72.3782 83.5133 80.2184 89.1643Z" fill="#D9F2FF"/>
<path opacity="0.1" d="M67.2994 100.092C79.886 124.789 107.791 169.321 119.419 175.925C126.493 179.936 141.547 187.752 147.047 178.675C147.155 178.501 147.252 178.32 147.348 178.133L67.5828 83.139C62.5952 82.4454 60.0683 85.9072 67.2994 100.092Z" fill="#0B0B0B"/>
<path d="M110.723 197.468L98.8484 155.39C98.8484 155.39 109.095 141.108 105.241 132.315C102.437 125.91 81.9436 91.7992 71.4136 83.5549C61.5348 75.8232 46.2162 82.8794 40.8245 88.7415C31.7962 98.5539 18.7392 158.146 18.7392 158.146C4.41564 178.729 0.000976562 197.468 0.000976562 197.468H110.723Z" fill="#D9F2FF"/>
<path d="M87.0573 152.029C82.0396 151.444 76.8771 151.975 71.8714 152.885C66.8355 153.802 55.5154 157.192 52.6808 158.018C52.6085 158.036 52.6266 158.157 52.6989 158.144C57.7529 157.409 58.4585 157.192 63.4521 155.985C68.4337 154.785 73.4334 153.76 78.4692 152.97C81.3098 152.524 84.1685 152.403 87.0211 152.361C87.2081 152.361 87.2503 152.053 87.0573 152.029Z" fill="#333333"/>
<path d="M95.507 156.063C90.3806 154.821 84.9769 154.803 79.736 155.593C79.6757 155.605 79.6697 155.719 79.736 155.719C82.3595 155.707 84.9769 155.701 87.6004 155.798C90.2299 155.894 92.8654 156.081 95.4949 156.226C95.5854 156.226 95.5974 156.081 95.507 156.063Z" fill="#333333"/>
<path d="M36.6149 104.319C37.8995 131.47 40.4627 165.738 58.5073 177.631C76.3288 189.38 83.3488 181.063 84.3259 179.205C94.6328 159.587 67.9216 117.147 54.5329 97.0938C41.2407 77.1796 36.2229 96.0324 36.6149 104.319Z" fill="#D9F2FF"/>
<path d="M84.332 179.199C87.9747 170.08 84.8808 158.235 81.986 149.213C76.5159 132.941 67.771 118.069 58.7607 103.516C63.0065 108.938 66.9146 114.631 70.503 120.529C77.5834 132.38 83.6324 145.106 86.0931 158.796C87.1364 165.526 87.6732 173.011 84.332 179.199Z" fill="#333333"/>
<path d="M62.3066 106.417C63.7239 108.275 64.7311 110.392 65.2739 112.672C63.9712 110.724 62.9942 108.655 62.3066 106.417Z" fill="#333333"/>
<path d="M53.2591 87.0475C53.6511 89.2005 60.8702 101.293 71.8224 100.889C77.6 100.677 76.8703 86.179 76.8703 86.179L82.1052 67.1634L58.7171 50.6929C58.7231 50.6929 53.1023 86.1308 53.2591 87.0475Z" fill="#67B5DC"/>
<path d="M82.1112 67.1634L77.2201 84.9125C72.1963 82.7474 61.4552 76.62 56.8174 62.7849C57.8607 56.1268 58.7171 50.6929 58.7171 50.6929L82.1112 67.1634Z" fill="#333333"/>
<path d="M107.701 36.792C114.606 68.346 96.4774 76.0536 89.6684 77.5432C83.4867 78.8941 62.2698 82.6997 52.1377 52.0262C42.0057 21.3588 54.5019 8.16305 68.4756 4.32736C82.4493 0.497706 100.796 5.23804 107.701 36.792Z" fill="#67B5DC"/>
<path d="M54.508 55.6701C60.943 51.2614 60.0685 43.9157 60.0685 43.9157C68.1198 38.8136 71.7143 31.3231 72.0882 30.5632C71.9797 31.2447 71.2137 36.184 70.7433 38.6869C90.1389 31.7151 93.8479 15.4134 93.8479 15.4134C101.381 20.8353 103.341 24.7674 104.613 26.6793C104.613 26.6793 102.774 14.3882 95.1385 7.19323C85.7906 -1.618 75.5681 1.99454 75.5681 1.99454C75.5681 1.99454 59.2845 -0.116289 49.3394 14.949C38.6465 31.2025 54.508 55.6701 54.508 55.6701Z" fill="#2A71FF"/>
<path d="M85.41 32.9147C82.5151 35.2246 79.1679 37.0037 75.7604 38.3426C75.7303 38.3547 75.7182 38.3124 75.7423 38.3004C81.1219 35.7975 85.6994 32.0222 88.9863 27.0526C90.3734 24.9539 91.5012 22.7043 92.3275 20.3221C93.1899 17.8373 93.9558 14.9184 93.7508 12.2708C93.7387 12.0717 94.0463 12.0476 94.0644 12.2466C94.2815 15.045 94.4503 17.6323 93.7508 20.3824C93.0874 22.9938 91.9354 25.5208 90.3795 27.7221C88.9863 29.6882 87.2916 31.413 85.41 32.9147Z" fill="#2A71FF"/>
<path d="M77.04 1.62053C86.5448 -1.84124 96.1401 3.32729 100.754 11.8671C102.304 14.569 103.401 17.488 104.155 20.4673C102.931 17.6448 101.604 14.8886 99.9516 12.3556C94.952 4.31034 86.569 -0.303345 77.04 1.62053Z" fill="#2A71FF"/>
<path d="M57.6803 53.3472C57.6803 53.3472 49.3877 44.2586 45.1721 47.3404C40.9564 50.4222 48.0911 64.2331 53.6818 65.5237C59.2664 66.8144 60.5691 61.6639 60.5691 61.6639L57.6803 53.3472Z" fill="#67B5DC"/>
<path d="M47.3192 51.2546C47.2348 51.2607 47.2288 51.3813 47.3072 51.3994C51.2394 52.4246 53.6578 55.6331 55.4972 59.0466C54.2066 57.8103 52.5963 57.2494 50.9137 58.8114C50.8232 58.8959 50.9378 59.0346 51.0403 58.9984C52.53 58.4737 53.6698 58.5943 54.8579 59.6859C55.7023 60.4579 56.3476 61.4892 56.9989 62.424C57.216 62.7376 57.795 62.4782 57.6201 62.1104C57.6081 62.0862 57.59 62.0561 57.5779 62.0259C57.0653 57.2494 52.4998 51.0677 47.3192 51.2546Z" fill="#333333"/>
<path d="M99.3422 34.5729C98.5763 34.5608 97.8707 34.4221 97.1108 34.3316C96.2544 34.2291 95.5669 34.2352 94.8793 33.6501C94.5114 33.3365 94.4692 32.6309 94.7406 32.2449C95.3739 31.3524 96.4534 31.2136 97.4847 31.2981C98.6064 31.3885 99.4508 31.7383 100.265 32.5163C101.055 33.2642 100.355 34.5849 99.3422 34.5729Z" fill="#333333"/>
<path d="M77.9864 42.1062C78.6921 41.8047 79.2951 41.4126 79.9646 41.0447C80.7185 40.6286 81.3638 40.3753 81.7739 39.5792C81.997 39.151 81.7739 38.4816 81.3758 38.2223C80.4531 37.6312 79.4037 37.9087 78.4749 38.373C77.4678 38.8736 76.8164 39.5189 76.352 40.5442C75.9118 41.5393 77.0577 42.4982 77.9864 42.1062Z" fill="#333333"/>
<path d="M83.0703 64.384C83.6312 64.8665 84.2102 65.5419 85.0183 65.554C85.7903 65.5661 86.6648 65.1559 87.3523 64.8363C87.4186 64.8062 87.497 64.8725 87.4548 64.9449C86.9422 65.8314 85.7722 66.4466 84.7349 66.338C83.7217 66.2295 83.1668 65.4032 82.8653 64.5046C82.823 64.3719 82.9859 64.3116 83.0703 64.384Z" fill="#333333"/>
<path d="M91.695 61.8095C92.6841 61.3512 93.8541 57.1235 92.0931 57.039C90.326 56.9606 86.4119 58.4744 85.2057 61.2185C84.1503 63.6248 89.0897 61.4296 89.9521 61.6889C90.6637 61.9 90.9834 62.1352 91.695 61.8095Z" fill="#FEFEFE"/>
<path d="M89.9517 61.6884C90.1145 61.7427 90.2412 61.7909 90.3618 61.8211C90.2834 60.5003 89.1495 59.0408 86.7432 59.2097C86.0858 59.7766 85.531 60.44 85.1993 61.212C84.1499 63.6123 89.0892 61.4291 89.9517 61.6884Z" fill="#FEFEFE"/>
<path d="M83.8412 45.4577C83.8051 45.3793 83.6905 45.5964 83.7086 45.6868C84.2091 47.8821 84.4142 50.4875 82.5566 51.6093C82.4963 51.6454 82.5265 51.754 82.5989 51.7299C84.9751 50.9097 84.6675 47.46 83.8412 45.4577Z" fill="#333333"/>
<path d="M81.4234 43.5338C77.8168 43.956 78.9265 51.1449 82.2677 50.7528C85.5546 50.3608 84.4449 43.178 81.4234 43.5338Z" fill="#333333"/>
<path d="M80.067 44.1322C79.5001 44.6327 78.9995 45.4469 78.2517 45.6399C77.3892 45.863 76.6112 45.2117 75.9297 44.5784C75.8574 44.5121 75.8091 44.5845 75.8212 44.681C76.0142 46.0621 76.762 47.3889 78.2698 47.3708C79.6448 47.3527 80.4228 45.9837 80.5555 44.5423C80.5796 44.2709 80.2962 43.9271 80.067 44.1322Z" fill="#333333"/>
<path d="M96.0735 41.6787C96.0795 41.5882 96.2605 41.7571 96.2725 41.8476C96.5258 44.085 97.2013 46.606 99.3242 47.0523C99.3905 47.0643 99.4026 47.1789 99.3242 47.1789C96.8153 47.197 95.9589 43.8438 96.0735 41.6787Z" fill="#333333"/>
<path d="M97.7204 39.0608C101.267 38.2647 102.599 45.4114 99.3186 46.1472C96.086 46.8769 94.7532 39.7302 97.7204 39.0608Z" fill="#333333"/>
<path d="M99.3001 39.2543C99.9333 39.5257 100.621 40.1107 101.308 40.0323C102.098 39.9358 102.533 39.0553 102.895 38.223C102.931 38.1386 102.997 38.1868 103.021 38.2773C103.317 39.6343 103.13 41.142 101.863 41.6486C100.711 42.113 99.6137 41.1058 99.0347 39.8031C98.9201 39.5619 99.0468 39.1397 99.3001 39.2543Z" fill="#333333"/>
<path d="M87.0132 59.2412C90.5655 57.6008 92.8934 57.6731 95.1671 57.4621C95.4083 57.3716 95.927 57.0761 95.9149 56.8288L95.9089 56.8107C95.8908 56.7323 94.7811 52.3116 94.7811 52.3116C95.4445 52.4805 98.7796 53.1801 98.5505 52.3357C96.5844 45.37 94.3951 37.6262 90.9635 31.1128C90.861 30.8897 90.5172 31.0223 90.5896 31.2515C92.2179 38.0182 95.0223 44.4593 96.7653 51.226C95.7159 51.0692 93.985 50.7375 93.1346 50.9366C92.9175 51.0572 94.576 55.6407 94.6544 56.3885C94.6544 56.3885 90.6921 55.9483 86.6634 58.8914C85.7588 59.5608 85.7166 59.8443 87.0132 59.2412Z" fill="#333333"/>
<g opacity="0.1">
<path d="M76.5024 51.7593C76.1526 52.7423 75.4892 53.466 74.5303 53.8882C74.874 52.8991 75.5435 52.1814 76.5024 51.7593Z" fill="#0B0B0B"/>
<path d="M78.2329 51.8677C77.8831 52.8507 77.2197 53.5744 76.2607 53.9966C76.6045 53.0075 77.2739 52.2898 78.2329 51.8677Z" fill="#0B0B0B"/>
<path d="M79.9643 51.9761C79.6145 52.9591 78.9511 53.6828 77.9922 54.105C78.336 53.122 79.0054 52.3982 79.9643 51.9761Z" fill="#0B0B0B"/>
<path d="M81.6948 52.0845C81.345 53.0675 80.6816 53.7912 79.7227 54.2134C80.0725 53.2304 80.7419 52.5066 81.6948 52.0845Z" fill="#0B0B0B"/>
<path d="M104.83 46.459C105.777 46.5917 106.513 47.0802 106.995 47.9064C106.054 47.7737 105.319 47.2792 104.83 46.459Z" fill="#0B0B0B"/>
<path d="M103.624 47.0444C104.571 47.1771 105.307 47.6656 105.789 48.4919C104.842 48.3592 104.113 47.8646 103.624 47.0444Z" fill="#0B0B0B"/>
<path d="M102.412 47.6284C103.359 47.7611 104.095 48.2496 104.577 49.0759C103.636 48.9432 102.901 48.4486 102.412 47.6284Z" fill="#0B0B0B"/>
<path d="M101.206 48.2139C102.153 48.3465 102.889 48.8351 103.371 49.6613C102.424 49.5286 101.689 49.0341 101.206 48.2139Z" fill="#0B0B0B"/>
</g>
<path opacity="0.1" d="M82.528 54.132C82.6184 56.3092 80.6704 58.1547 78.1736 58.2633C75.6768 58.3718 73.572 56.6952 73.4815 54.518C73.3911 52.3408 75.3391 50.4954 77.8359 50.3868C80.3387 50.2783 82.4375 51.9549 82.528 54.132Z" fill="#0B0B0B"/>
<path opacity="0.1" d="M108.093 47.4494C108.491 49.2286 107.291 51.0077 105.415 51.4238C103.539 51.84 101.7 50.7363 101.302 48.9572C100.904 47.1781 102.104 45.3989 103.98 44.9828C105.849 44.5666 107.695 45.6703 108.093 47.4494Z" fill="#0B0B0B"/>
<path d="M71.7507 38.6807C71.9617 41.093 69.097 49.3977 73.0714 49.0479C75.6044 48.8247 73.4574 43.7889 72.782 42.1666C71.9557 40.1884 71.7507 38.6807 71.7507 38.6807Z" fill="#FEFEFE"/>
<path d="M140.479 177.759C128.29 173.223 120.342 161.276 98.0511 114.789C94.9693 108.354 134.219 87.4148 137.868 94.1152C142.463 102.553 154.591 127.979 155.448 130.597C162.691 152.658 148.747 180.84 140.479 177.759Z" fill="#67B5DC"/>
<path d="M129.388 55.0411C129.388 55.0411 128.013 39.4692 132.808 36.6105C137.596 33.7518 137.198 55.409 138.284 68.5263C139.261 80.341 125.257 69.7627 125.257 69.7627L129.388 55.0411Z" fill="#67B5DC"/>
<path opacity="0.2" d="M129.388 55.0411C129.388 55.0411 128.013 39.4692 132.808 36.6105C137.596 33.7518 137.198 55.409 138.284 68.5263C139.261 80.341 125.257 69.7627 125.257 69.7627L129.388 55.0411Z" fill="#0B0B0B"/>
<path d="M135.66 100.135C135.66 100.135 142.499 73.4356 139.526 62.4472C135.98 49.3299 121.222 27.335 118.882 31.2069C114.606 38.2932 128.218 56.6515 128.218 56.6515C128.218 56.6515 112.561 22.8057 108.997 30.067C105.041 38.1244 113.285 43.0637 116.488 57.8215C117.404 62.0432 118.858 68.9788 118.158 69.2984C116.855 69.8955 116.964 65.0828 113.388 56.1811C109.715 47.0381 106.368 43.2386 104.703 44.9333C102.092 47.593 103.901 53.5576 106.006 61.4039C108.105 69.214 103.533 75.5585 101.573 79.4425C90.1022 102.203 96.0788 112.118 99.3657 116.515L135.66 100.135Z" fill="#67B5DC"/>
<path d="M119.058 39.0054C122.405 43.0039 125.312 47.3462 127.61 52.0383C129.829 56.7605 130.74 62.0497 131.264 67.2061C129.992 62.2246 128.876 57.1706 126.554 52.5569C124.22 47.9613 121.494 43.5648 119.058 39.0054Z" fill="#333333"/>
<path d="M108.437 135.965C104.486 129.156 100.59 122.262 97.6954 114.923C96.6581 113.554 95.6087 110.84 95.1684 108.801C91.8031 94.9362 100.162 83.2482 104.896 70.9269C105.717 68.8643 105.777 66.8198 105.566 64.6668C105.234 60.2702 103.726 56.145 102.924 51.7846C102.568 49.4446 102.617 45.9105 104.727 44.3545C109.003 42.0869 113.864 56.7421 114.89 59.7576C115.921 62.8997 116.747 66.0961 117.754 69.2443C118.02 70.0162 118.279 70.8123 118.725 71.5059C118.876 71.723 119.057 71.9582 119.334 72.0306C118.792 71.8677 118.532 71.2707 118.273 70.8123C116.693 67.2963 115.8 63.5088 114.431 59.9144C112.924 55.8013 111.235 51.7123 108.943 48.0153C108.117 46.8272 107.176 45.2591 105.729 44.9998C103.63 45.2591 103.6 49.9753 103.949 51.6158C105.107 57.9664 108.298 64.8477 106.006 71.3069C101.368 83.7186 93.0335 94.6467 96.055 108.602C96.5073 110.713 97.231 112.884 98.4251 114.657C101.157 122.015 104.818 129.005 108.437 135.965Z" fill="#333333"/>
<path d="M150.793 105.828L103.986 138.805C103.986 138.805 127.604 186.245 141.873 182.638C151.221 180.274 160.442 161.21 159.984 142.207C159.767 133.329 150.793 105.828 150.793 105.828Z" fill="#D9F2FF"/>
<path d="M109.945 134.614C109.016 135.404 108.057 136.152 107.11 136.918C106.169 137.69 105.186 138.402 104.221 139.15C104.221 139.15 104.3 138.522 104.36 138.643C112.056 153.557 124.98 173.267 124.98 173.267C123.02 171.843 112.791 158.34 103.618 138.987L103.479 138.655L103.757 138.48C104.782 137.823 105.783 137.141 106.827 136.514C107.858 135.869 108.889 135.217 109.945 134.614Z" fill="#333333"/>
<path d="M150.424 121.194C143.331 125.392 124.418 137.327 113.14 146.693C113.074 146.747 113.255 147.031 113.333 146.988C123.887 140.614 143.995 126.411 150.701 121.616C150.822 121.526 150.556 121.116 150.424 121.194Z" fill="#333333"/>
<path d="M78.2337 169.978C87.9918 161.378 88.9447 150.504 93.1301 99.1144C93.7091 92.0039 52.0714 89.4408 51.0642 96.9975C49.7917 106.52 47.2466 128.539 47.3853 131.29C48.5131 154.485 71.6117 175.81 78.2337 169.978Z" fill="#67B5DC"/>
<path d="M60.5691 77.3898C62.7463 65.9249 59.3086 33.8583 62.9453 32.5918C72.4018 29.305 70.3151 59.2788 75.9842 61.6791C81.394 63.9709 94.2279 43.5682 98.3953 40.2934C102.563 37.0125 106.664 35.5952 108.666 37.2658C110.668 38.9364 93.2328 65.0263 93.2328 65.0263C93.2328 65.0263 99.1793 53.278 101.145 49.5207C104.897 42.3499 110.24 39.8591 112.23 41.8554C113.81 43.4355 100.253 70.6653 100.253 70.6653C100.253 70.6653 98.727 67.493 100.024 64.7127C100.862 62.9155 103.672 55.0391 107.605 51.2999C110.15 48.8754 112.646 48.7126 113.467 49.3941C115.861 51.3722 107.339 69.8632 105.451 75.3393C98.2686 96.2004 90.6274 106.399 90.6274 106.399L51.6191 98.0519C51.6131 98.0579 59.6825 82.0698 60.5691 77.3898Z" fill="#67B5DC"/>
<path d="M64.1878 86.8767L51.6132 98.0581C45.6667 86.8827 46.2035 82.0398 36.1197 75.1404C29.5038 70.6112 29.2203 65.6779 37.4948 66.7514C45.528 67.7827 50.6121 70.2734 57.4814 77.7458C59.2243 79.6395 61.0879 74.1212 61.2025 71.365L64.1878 86.8767Z" fill="#67B5DC"/>
<path d="M90.7178 66.9556C93.1663 62.6073 96.0733 58.5846 99.137 54.6705C101.947 50.678 104.378 46.2513 107.08 42.1382C104.885 46.6252 102.731 51.1062 100.005 55.3038C97.1589 59.3807 94.1615 63.343 90.7178 66.9556Z" fill="#333333"/>
<path d="M99.2393 71.9499C100.482 67.9695 102.478 64.2605 104.673 60.7565C106.555 57.1379 108.147 53.2419 109.95 49.5449C108.684 53.5254 107.363 57.4575 105.59 61.251C103.636 64.954 101.652 68.5243 99.2393 71.9499Z" fill="#333333"/>
<path d="M92.2255 108.589L92.7622 103.083C95.0962 98.5594 97.3096 93.9638 99.3963 89.3199C101.477 84.6821 103.443 79.9901 105.21 75.2256C107.164 70.5034 109.136 65.8354 110.831 61.0408C111.561 58.737 114.407 51.3912 113.062 49.5337C112.17 48.8341 110.831 49.4312 109.866 49.7508L110.24 48.9246C110.837 47.4591 112.845 43.1288 111.742 41.9046C110.119 40.433 107.9 42.4172 106.477 43.352C107.321 41.7719 108.69 39.8359 108.551 37.9965C108.183 36.7541 106.483 36.6878 105.373 36.8868C99.7823 38.3463 95.9225 43.1771 92.4185 47.5194C90.6213 49.787 88.8542 52.0848 87.0087 54.3283C84.6506 57.0603 82.3287 60.1241 79.0539 61.8911C76.1228 63.3386 74.7297 61.3242 73.8431 58.743C71.5514 51.8315 71.0809 44.516 68.6324 37.6708C67.8785 35.8133 67.0824 33.5818 65.1646 32.7556C64.459 32.4842 63.5483 32.6289 62.903 33.033C62.5411 33.3285 62.3903 33.7869 62.2516 34.2513C61.4797 37.7432 61.6003 41.3979 61.4676 44.9743C61.4194 47.8692 61.3952 50.764 61.3832 53.6589L61.341 71.0341C61.3711 72.4996 61.0696 73.9591 60.5811 75.3281C60.3278 76.0096 60.0262 76.6851 59.598 77.2882C59.2723 77.7164 58.82 78.235 58.2169 78.1627C57.3062 77.9275 56.7031 77.1133 56.0639 76.4981C54.6526 74.9482 53.0846 73.2052 51.3477 72.0292C52.5659 72.8132 53.6274 73.8264 54.6345 74.8577L56.1362 76.4258C57.1555 77.3786 58.3315 78.9769 59.4472 77.1917C60.5931 75.3884 61.0877 73.163 61.0515 71.0401C60.9248 62.3495 60.8042 53.6649 60.8645 44.9683C60.9067 42.0674 60.9248 39.1725 61.2083 36.2596C61.4013 34.981 61.4254 33.419 62.4687 32.4782C64.073 31.3624 66.1838 31.9776 67.2875 33.4733C69.1269 35.8676 69.8567 38.7745 70.6407 41.603C72.1243 47.1816 72.8058 53.0136 74.6332 58.4656C75.8997 62.1625 77.4436 62.2952 80.4229 59.9974C84.8014 56.3004 88.0883 51.3973 91.7249 46.9706C95.3495 42.4895 99.3722 37.5321 105.228 36.0666C108.25 35.5901 110.318 36.9893 109.01 40.1918C108.75 40.9034 108.431 41.5668 108.057 42.2242L107.46 41.6874C108.931 40.6079 111.44 39.8721 112.622 41.7296C112.875 42.1518 112.882 42.6584 112.869 43.1047C112.658 45.312 111.808 47.254 110.946 49.2503L110.457 48.7195C111.127 48.4964 111.79 48.3697 112.532 48.4723C115.059 48.9125 114.064 52.2175 113.75 53.9363C111.862 61.3665 108.642 68.3744 105.705 75.4005C103.895 80.165 101.875 84.845 99.7039 89.4466C97.5508 94.0301 95.2349 98.68 92.8527 103.077L92.2255 108.589Z" fill="#333333"/>
<path d="M45.8174 110.012L98.5521 123.479C98.5521 123.479 93.2267 181.153 78.668 183.282C66.787 185.019 54.5984 172.8 48.2358 154.894C45.2565 146.523 45.8174 110.012 45.8174 110.012Z" fill="#D9F2FF"/>
<path d="M48.8873 123.642C57.011 125.023 78.9456 129.401 92.8228 134.111C92.9072 134.141 92.8349 134.467 92.7504 134.455C80.6101 132.278 56.7577 126.211 48.7787 124.13C48.6339 124.094 48.7365 123.617 48.8873 123.642Z" fill="#333333"/>
<path d="M91.2475 121.609L98.5811 123.358L98.6836 123.382C98.1288 129.817 97.3628 136.234 96.3316 142.615C94.7514 152.119 92.8999 161.673 89.4201 170.707C87.5746 175.152 85.5 180.013 81.3205 182.823C79.9032 183.758 78.1301 184.011 76.4716 184.144C68.173 184.898 60.2182 180.652 54.6275 174.766C44.3206 164.109 40.708 149.17 38.8022 134.913C37.9579 128.544 37.3608 122.14 37.1377 115.723C37.6383 122.122 38.374 128.502 39.4053 134.823C41.3594 147.337 44.4352 160.201 52.3116 170.405C57.9445 177.805 66.7437 183.764 76.3691 182.986C79.7464 182.92 82.0382 181.388 84.0103 178.68C85.8739 176.165 87.2429 173.264 88.425 170.315C91.8867 161.365 93.9252 151.933 95.644 142.494C96.8261 136.403 97.592 129.196 98.5148 123.593C98.5208 123.593 91.2475 121.609 91.2475 121.609Z" fill="#333333"/>
<path d="M35.9199 118.823C36.6014 120.903 37.114 122.942 37.8739 124.998C36.5532 123.243 35.9802 120.994 35.9199 118.823Z" fill="#333333"/>
<path d="M49.7138 111.008C48.399 110.748 47.0843 110.471 45.7755 110.181L45.9927 110.013C46.1615 114.53 46.252 119.041 46.3786 123.552C46.5535 130.313 46.6862 137.08 47.0601 143.828C47.2652 148.321 47.8924 152.754 49.2433 157.048C49.9007 159.189 50.727 161.294 51.8427 163.26C49.2373 159.527 47.7658 155.1 46.8249 150.673C45.9323 146.198 45.7876 141.651 45.5645 137.122C45.2327 128.081 45.2508 119.041 45.6429 110.007L45.6549 109.777C47.0119 110.181 48.3689 110.585 49.7138 111.008Z" fill="#333333"/>
</svg>
